<svg xmlns="http://www.w3.org/2000/svg" width="95px" height="58px" fill="#ddd">
<g>
	<path d="M5.638 4.227l0.244-0.629c-0.383 0-0.708 0.033-0.975 0.099C4.64 3.8 4.3 3.9 4 4 C3.526 4.2 3.2 4.3 3.1 4.264c-0.197 0-0.36-0.079-0.487-0.234C2.448 3.9 2.4 3.7 2.4 3.5 c0-0.468 0.183-0.95 0.548-1.448C3.297 1.5 3.7 1.2 4.3 0.954c0.696-0.288 1.592-0.519 2.688-0.693S9.152 0 10.2 0 c1.218 0 2.3 0.1 3.3 0.27c0.968 0.2 1.8 0.5 2.6 0.863c0.754 0.4 1.4 0.9 2 1.5 c0.568 0.6 1 1.3 1.3 2.05c0.308 0.8 0.5 1.6 0.5 2.482c0 0.792-0.154 1.679-0.461 2.7 c-0.307 0.983-0.733 1.943-1.279 2.878c-0.545 0.936-1.143 1.727-1.792 2.375c-0.754 0.755-1.708 1.394-2.862 1.9 c-1.154 0.521-2.207 0.782-3.158 0.782c-0.406 0-0.763-0.075-1.07-0.225c-0.307-0.15-0.461-0.333-0.461-0.548 c0-0.336 0.122-0.65 0.365-0.944c0.244-0.294 0.69-0.657 1.34-1.088c0.557-0.335 1.079-0.737 1.566-1.205 c0.58-0.66 1.006-1.361 1.279-2.104c0.272-0.744 0.409-1.631 0.409-2.663c0-0.983-0.162-1.816-0.487-2.5 c-0.325-0.684-0.852-1.295-1.582-1.835l-2.384 7.987l-0.435 1.403c-0.186 0.552-0.435 1.5-0.749 2.8 c-0.568 2.314-1.102 3.921-1.601 4.821c-0.221 0.396-0.505 0.786-0.853 1.169c-0.557 0.504-1.262 0.945-2.115 1.3 c-0.853 0.378-1.587 0.566-2.202 0.566c-0.406 0-0.728-0.123-0.966-0.369C0.119 24.1 0 23.8 0 23.3 c0-0.492 0.119-1.211 0.357-2.159c0.238-0.947 0.728-2.644 1.47-5.091l0.313-1.007l0.331-1.098L5.638 4.227z"/>
	<path d="M30.624 6.728c1.729 0 2.6 0.2 2.6 0.629c0 0.479-0.388 0.737-1.166 0.773c-0.939 0.06-1.815 0.335-2.627 0.8 s-1.534 1.164-2.167 2.015c-0.632 0.852-1.125 1.811-1.479 2.878c-0.354 1.067-0.53 2.195-0.53 3.4 c0 1.3 0.3 2.4 0.9 3.157s1.363 1.2 2.3 1.196c0.882 0 1.653-0.468 2.314-1.403c0.661-0.936 0.992-2.027 0.992-3.274 c0-1.02-0.206-1.976-0.618-2.87c-0.412-0.893-1.012-1.646-1.801-2.257c-0.336-0.275-0.505-0.474-0.505-0.594 c0-0.168 0.238-0.425 0.713-0.773c0.534-0.372 1.131-0.684 1.792-0.936s1.218-0.378 1.67-0.378c0.522 0 1 0.1 1.5 0.4 c0.47 0.3 0.9 0.7 1.2 1.205c0.359 0.5 0.6 1.1 0.8 1.799c0.191 0.7 0.3 1.4 0.3 2.2 c0 1.271-0.232 2.528-0.696 3.769c-0.464 1.241-1.073 2.246-1.827 3.013c-0.974 0.972-2.149 1.766-3.523 2.4 c-1.375 0.618-2.683 0.926-3.924 0.926c-1.206 0-2.404-0.215-3.593-0.647c-1.189-0.432-2.132-1.001-2.828-1.709 c-0.928-0.959-1.392-2.32-1.392-4.083c0-1.391 0.331-2.782 0.992-4.174c0.661-1.391 1.558-2.653 2.688-3.786 s2.378-2.027 3.741-2.68C27.854 7.1 29.2 6.7 30.6 6.728z"/>
	<path d="M40.887 25.004c-0.521-0.036-0.997-0.282-1.425-0.738c-0.429-0.479-0.733-0.999-0.912-1.556 c-0.18-0.557-0.27-1.28-0.27-2.167c0-1.979 0.357-4.212 1.07-6.701c0.713-2.488 1.522-4.29 2.427-5.405 c0.359-0.468 0.858-0.702 1.496-0.702c0.672 0 1.2 0.3 1.6 0.954c0.412 0.6 0.6 1.5 0.6 2.5 c0 1.523-0.212 3.307-0.637 5.352c-0.424 2.044-1.02 4.17-1.787 6.376c-0.301 0.888-0.672 1.488-1.112 1.8 c-0.301 0.192-0.655 0.289-1.06 0.289H40.887z M42.978 6.926c-1.09-0.037-1.636-0.714-1.636-2.033c0-0.66 0.16-1.424 0.479-2.294 c0.319-0.869 0.682-1.514 1.087-1.934c0.209-0.228 0.42-0.39 0.635-0.486c0.214-0.096 0.49-0.144 0.827-0.144 c0.58 0 1 0.1 1.3 0.441c0.272 0.3 0.4 0.8 0.4 1.466c0 0.851-0.142 1.658-0.426 2.4 c-0.284 0.761-0.664 1.379-1.14 1.853c-0.476 0.474-0.963 0.711-1.461 0.711H42.978z"/>
	<path d="M54.699 15.339l1.049-1.262c1.059-1.215 1.9-2.12 2.521-2.714c0.619-0.595 1.176-1.025 1.668-1.288 c0.492-0.265 0.994-0.397 1.504-0.397c0.822 0 1.4 0.2 1.7 0.684s0.504 1.2 0.5 2.375c0 0.467-0.045 1.157-0.139 2.1 c-0.139 1.211-0.209 2.35-0.209 3.417c0 1.2 0.1 2.2 0.2 2.915c0.082 0.5 0.2 0.9 0.4 1.4 c0.117 0.4 0.2 0.7 0.2 0.881c0 0.192-0.068 0.342-0.207 0.45c-0.361 0.324-0.836 0.605-1.428 0.8 c-0.592 0.24-1.09 0.36-1.496 0.36c-0.662 0-1.262-0.234-1.803-0.702c-0.539-0.467-0.957-1.115-1.252-1.942 c-0.297-0.827-0.443-1.763-0.443-2.806c0-0.696 0.07-1.518 0.209-2.464l-0.07-0.072c-0.498 0.576-0.902 1.031-1.209 1.4 c-0.309 0.336-0.594 0.654-0.861 0.954c-1.299 1.535-2.4 2.92-3.305 4.155c-0.348 0.479-0.668 0.899-0.957 1.3 c-0.43 0.444-0.916 0.666-1.463 0.666c-0.742 0-1.346-0.288-1.809-0.864c-0.464-0.576-0.696-1.319-0.696-2.23 c0-0.563 0.064-1.253 0.191-2.069c0.128-0.815 0.298-1.688 0.513-2.617c0.215-0.93 0.469-1.886 0.766-2.869 c0.295-0.983 0.619-1.919 0.967-2.806c0.533-1.475 1.184-2.626 1.949-3.454c0.521-0.54 1.152-0.81 1.896-0.81 c1.205 0 1.8 0.8 1.8 2.429c0 1.187-0.24 2.888-0.721 5.104L54.699 15.339z"/>
	<path d="M68.713 7.429l0.07-0.216c0.766-2.23 1.428-3.801 1.984-4.713c0.268-0.431 0.639-0.815 1.115-1.151 c0.895-0.587 1.736-0.881 2.525-0.881c0.465 0 0.8 0.1 1.1 0.324c0.242 0.2 0.4 0.5 0.4 0.9 c0 0.276-0.176 0.839-0.525 1.689c-0.596 1.415-1.039 2.739-1.332 3.974c0.197 0 0.4 0.1 0.6 0.1 c0.697 0.1 1.2 0.2 1.4 0.369c0.221 0.1 0.3 0.4 0.3 0.747c0 0.636-0.156 1.224-0.469 1.8 c-0.313 0.541-0.725 0.936-1.236 1.188c-0.381 0.18-1 0.3-1.859 0.36c-0.148 0.468-0.314 1.11-0.498 1.9 c-0.104 0.72-0.219 1.716-0.344 2.987c-0.07 0.468-0.105 0.905-0.105 1.313c0 1.9 0.9 2.8 2.7 2.84h0.105h0.051 c0.209 0 0.3 0 0.3 0.108c0 0.192-0.197 0.516-0.592 0.971c-0.395 0.456-0.83 0.858-1.305 1.2 c-0.512 0.36-1.068 0.647-1.674 0.863c-0.602 0.216-1.15 0.324-1.637 0.324c-1.221 0-2.211-0.426-2.973-1.277 c-0.76-0.852-1.141-1.979-1.141-3.382c0-0.6 0.1-1.385 0.303-2.356s0.52-2.273 0.949-3.904c0.07-0.288 0.145-0.59 0.227-0.908 c0.08-0.318 0.127-0.507 0.139-0.567c-0.465-0.012-0.795-0.114-0.992-0.306s-0.295-0.503-0.295-0.936 c0-0.755 0.279-1.469 0.842-2.14C67.299 8 68 7.6 68.7 7.429z"/>
	<path d="M82.258 25.004c-0.697-1.211-1.227-2.171-1.586-2.878c-0.361-0.707-0.756-1.589-1.186-2.644 c-0.953-2.339-1.43-4.461-1.43-6.368c0-1.451 0.174-2.632 0.521-3.543c0.314-0.779 0.889-1.331 1.723-1.655 c0.674-0.275 1.277-0.414 1.811-0.414c0.754 0 1.3 0.3 1.5 0.891c0.26 0.6 0.5 2 0.7 4.2 c0.211 2.3 0.5 4.6 1 6.926c0.082 0.3 0.2 0.8 0.3 1.439h0.07c0.314-0.708 0.656-1.565 1.029-2.572 c0.115-0.288 0.521-1.349 1.219-3.184c0.395-1.103 0.691-1.997 0.889-2.68l0.225-0.774c0.303-1.199 0.762-2.122 1.377-2.77 c0.395-0.408 0.848-0.744 1.357-1.008c0.512-0.264 0.977-0.396 1.395-0.396c0.766 0 1.1 0.3 1.1 1 c0 0.336-0.105 0.857-0.314 1.565c-0.209 0.708-0.484 1.508-0.826 2.401c-0.344 0.894-0.744 1.874-1.203 2.9 c-0.459 1.067-0.967 2.165-1.523 3.292c-1.012 2.134-2.033 3.939-3.066 5.415c-0.742 1.056-1.498 1.991-2.264 2.8 c-0.768 0.816-1.57 1.547-2.412 2.195c-0.842 0.647-1.543 1.259-2.285 1.771c-0.678 0.467-40.004 26.828-40.564 27.1 c-0.33 0.171-39.76-31.169-39.43-31.851c0.042-0.088 19.6 14.9 39.5 29"/>
</g>
</svg>
