<svg id="Layer_1" data-name="Layer 1" xmlns="http://www.w3.org/2000/svg" viewBox="0 0 591.57 244"><defs><style>.cls-1,.cls-10,.cls-12,.cls-14,.cls-2,.cls-7{fill:#fff;}.cls-1,.cls-11,.cls-12,.cls-13,.cls-14,.cls-15,.cls-16,.cls-2,.cls-20,.cls-3,.cls-5{stroke:#2c3e50;}.cls-1,.cls-10,.cls-11,.cls-12,.cls-13,.cls-14,.cls-15,.cls-16,.cls-19,.cls-2,.cls-20,.cls-21,.cls-22,.cls-3,.cls-5,.cls-8,.cls-9{stroke-miterlimit:10;}.cls-1{stroke-width:1.48px;}.cls-16,.cls-2,.cls-22{stroke-width:2px;}.cls-11,.cls-16,.cls-19,.cls-20,.cls-21,.cls-3,.cls-8{fill:none;}.cls-13,.cls-15,.cls-4,.cls-5{fill:#2c3e50;}.cls-22,.cls-6{fill:#26b99a;}.cls-10,.cls-19,.cls-21,.cls-22,.cls-8,.cls-9{stroke:#fff;}.cls-10,.cls-8,.cls-9{stroke-width:0.5px;}.cls-17,.cls-9{fill:#14a085;}.cls-11{stroke-width:1.7px;}.cls-12,.cls-13,.cls-20{stroke-width:1.37px;}.cls-14{stroke-width:1.59px;}.cls-15{stroke-width:1.55px;}.cls-18{fill:#35495e;}.cls-19{stroke-width:0.41px;}.cls-21{stroke-width:0.2px;}</style></defs><title>hero-image</title><rect class="cls-1" x="55.78" y="82.38" width="23.03" height="12.62"/><rect class="cls-2" x="287.77" y="207.92" width="5.8" height="14.5" rx="1" ry="1"/><rect class="cls-2" x="244.27" y="34.67" width="91.5" height="176" rx="9.99" ry="9.99"/><line class="cls-3" x1="271.27" y1="47.92" x2="275.77" y2="47.92"/><line class="cls-3" x1="281.27" y1="47.92" x2="307.27" y2="47.92"/><circle class="cls-4" cx="288.77" cy="41.92" r="1.5"/><rect class="cls-5" x="253.27" y="55.42" width="73.5" height="136.25" rx="2.42" ry="2.42"/><circle class="cls-6" cx="290.36" cy="121.83" r="25.74"/><circle class="cls-3" cx="290.02" cy="200.67" r="4.25"/><path class="cls-7" d="M291.66,114.42l-2.6-2.6H280V128.7h20.78V114.42Z"/><circle class="cls-6" cx="298.75" cy="128.7" r="7.19"/><circle class="cls-7" cx="300" cy="128.58" r="1.63"/><line class="cls-8" x1="300" y1="128.58" x2="305.38" y2="123.21"/><line class="cls-8" x1="300" y1="128.58" x2="305.43" y2="134"/><line class="cls-8" x1="300" y1="128.58" x2="307.94" y2="128.58"/><circle class="cls-9" cx="305.38" cy="123.21" r="1.49"/><circle class="cls-10" cx="307.94" cy="128.7" r="1.49"/><circle class="cls-9" cx="305.43" cy="134" r="1.49"/><line class="cls-11" x1="290.67" y1="222.42" x2="290.67" y2="251"/><rect class="cls-12" x="472.83" y="35.36" width="93.73" height="60.06" rx="2.91" ry="2.91"/><rect class="cls-13" x="476.24" y="38.77" width="86.23" height="55.74" rx="1" ry="1"/><rect class="cls-14" x="14.78" y="11.83" width="105.98" height="72.13" rx="2.91" ry="2.91"/><rect class="cls-15" x="18.64" y="15.93" width="97.49" height="63.4" rx="1" ry="1"/><rect class="cls-1" x="49.79" y="93.42" width="33.44" height="4.42"/><polyline class="cls-16" points="235.76 194 66.51 194 66.51 104"/><polyline class="cls-16" points="351.01 194 520.26 194 520.26 104"/><rect class="cls-17" x="498.76" y="44.47" width="8.35" height="10.44" rx="1.4" ry="1.4"/><path class="cls-18" d="M477.44,39.65h17.45a0,0,0,0,1,0,0V90.13a0,0,0,0,1,0,0H477a0,0,0,0,1,0,0V40A.4.4,0,0,1,477.44,39.65Z"/><line class="cls-19" x1="500.33" y1="46.54" x2="505.44" y2="46.54"/><line class="cls-19" x1="500.33" y1="48.12" x2="502.89" y2="48.12"/><line class="cls-19" x1="500.33" y1="49.7" x2="504.54" y2="49.7"/><line class="cls-19" x1="500.33" y1="51.27" x2="503.84" y2="51.27"/><line class="cls-19" x1="500.33" y1="52.85" x2="502.44" y2="52.85"/><rect class="cls-17" x="509.71" y="44.47" width="8.35" height="10.44" rx="1.4" ry="1.4"/><line class="cls-19" x1="511.28" y1="46.54" x2="516.39" y2="46.54"/><line class="cls-19" x1="511.28" y1="48.12" x2="513.83" y2="48.12"/><line class="cls-19" x1="511.28" y1="49.7" x2="515.49" y2="49.7"/><line class="cls-19" x1="511.28" y1="51.27" x2="514.78" y2="51.27"/><line class="cls-19" x1="511.28" y1="52.85" x2="513.38" y2="52.85"/><path class="cls-12" d="M461.68,90.87H578.84a0,0,0,0,1,0,0v5.6a1,1,0,0,1-1,1H462.68a1,1,0,0,1-1-1v-5.6A0,0,0,0,1,461.68,90.87Z"/><line class="cls-20" x1="512.41" y1="92.24" x2="528.79" y2="92.24"/><path class="cls-7" d="M486.19,46.16l-.66-.66h-2.3v4.27h5.26V46.16Z"/><rect class="cls-17" x="520.51" y="44.47" width="8.35" height="10.44" rx="1.4" ry="1.4"/><rect class="cls-21" x="521.71" y="46.54" width="5.96" height="5.96" rx="0.62" ry="0.62"/><polygon class="cls-7" points="522.3 52.5 524.08 50.85 525.11 51.75 526.12 49.89 527.36 52.41 526.83 52.5 522.3 52.5"/><circle class="cls-7" cx="523.18" cy="48.63" r="0.66"/><rect class="cls-17" x="498.76" y="57.87" width="8.35" height="10.44" rx="1.4" ry="1.4"/><rect class="cls-21" x="499.96" y="59.94" width="5.96" height="5.96" rx="0.62" ry="0.62"/><polygon class="cls-7" points="500.55 65.89 502.33 64.25 503.37 65.14 504.37 63.28 505.62 65.8 505.08 65.89 500.55 65.89"/><circle class="cls-7" cx="501.43" cy="62.02" r="0.66"/><rect class="cls-17" x="509.66" y="58.06" width="8.35" height="10.44" rx="1.4" ry="1.4"/><line class="cls-19" x1="511.23" y1="60.13" x2="516.34" y2="60.13"/><line class="cls-19" x1="511.23" y1="61.71" x2="513.78" y2="61.71"/><line class="cls-19" x1="511.23" y1="63.28" x2="515.44" y2="63.28"/><line class="cls-19" x1="511.23" y1="64.86" x2="514.73" y2="64.86"/><line class="cls-19" x1="511.23" y1="66.44" x2="513.33" y2="66.44"/><rect class="cls-17" x="531.09" y="44.47" width="8.35" height="10.44" rx="1.4" ry="1.4"/><path class="cls-7" d="M532.94,49.79l1.49.63v.38L532.61,50v-.43l1.81-.79v.38Z"/><path class="cls-7" d="M534.48,51.67l1.34-3.95h.41l-1.34,3.95Z"/><path class="cls-7" d="M537.6,49.78l-1.49-.63v-.38l1.81.79V50l-1.81.79V50.4Z"/><rect class="cls-17" x="43.29" y="21.65" width="8.35" height="10.44" rx="1.4" ry="1.4"/><line class="cls-19" x1="44.86" y1="23.72" x2="49.97" y2="23.72"/><line class="cls-19" x1="44.86" y1="25.3" x2="47.41" y2="25.3"/><line class="cls-19" x1="44.86" y1="26.87" x2="49.07" y2="26.87"/><line class="cls-19" x1="44.86" y1="28.45" x2="48.37" y2="28.45"/><line class="cls-19" x1="44.86" y1="30.02" x2="46.96" y2="30.02"/><rect class="cls-17" x="54.23" y="21.65" width="8.35" height="10.44" rx="1.4" ry="1.4"/><line class="cls-19" x1="55.8" y1="23.72" x2="60.91" y2="23.72"/><line class="cls-19" x1="55.8" y1="25.3" x2="58.36" y2="25.3"/><line class="cls-19" x1="55.8" y1="26.87" x2="60.01" y2="26.87"/><line class="cls-19" x1="55.8" y1="28.45" x2="59.31" y2="28.45"/><line class="cls-19" x1="55.8" y1="30.02" x2="57.91" y2="30.02"/><rect class="cls-17" x="65.04" y="21.65" width="8.35" height="10.44" rx="1.4" ry="1.4"/><rect class="cls-21" x="66.23" y="23.72" width="5.96" height="5.96" rx="0.62" ry="0.62"/><polygon class="cls-7" points="66.83 29.68 68.6 28.03 69.64 28.93 70.65 27.07 71.89 29.58 71.36 29.68 66.83 29.68"/><circle class="cls-7" cx="67.7" cy="25.8" r="0.66"/><rect class="cls-17" x="43.29" y="35.04" width="8.35" height="10.44" rx="1.4" ry="1.4"/><rect class="cls-21" x="44.49" y="37.11" width="5.96" height="5.96" rx="0.62" ry="0.62"/><polygon class="cls-7" points="45.08 43.07 46.85 41.42 47.89 42.32 48.9 40.46 50.14 42.98 49.61 43.07 45.08 43.07"/><circle class="cls-7" cx="45.95" cy="39.19" r="0.66"/><rect class="cls-17" x="54.18" y="35.24" width="8.35" height="10.44" rx="1.4" ry="1.4"/><line class="cls-19" x1="55.75" y1="37.31" x2="60.86" y2="37.31"/><line class="cls-19" x1="55.75" y1="38.89" x2="58.31" y2="38.89"/><line class="cls-19" x1="55.75" y1="40.46" x2="59.96" y2="40.46"/><line class="cls-19" x1="55.75" y1="42.04" x2="59.26" y2="42.04"/><line class="cls-19" x1="55.75" y1="43.61" x2="57.86" y2="43.61"/><rect class="cls-17" x="75.62" y="21.65" width="8.35" height="10.44" rx="1.4" ry="1.4"/><path class="cls-7" d="M77.46,27l1.49.63V28l-1.81-.79v-.43L78.95,26v.38Z"/><path class="cls-7" d="M79,28.85l1.34-3.95h.41l-1.34,3.95Z"/><path class="cls-7" d="M82.13,27l-1.49-.63V26l1.81.79v.43L80.64,28v-.38Z"/><path class="cls-18" d="M19.79,16.91H38.26a0,0,0,0,1,0,0v61.4a0,0,0,0,1,0,0H19.79a.4.4,0,0,1-.4-.4V17.31A.4.4,0,0,1,19.79,16.91Z"/><path class="cls-7" d="M29.85,22.95l-1-1H25.47V28.3h7.79V22.95Z"/><circle class="cls-22" cx="519.81" cy="191.67" r="17.46"/><path class="cls-7" d="M525.32,191.45l-1.41-.29a3.72,3.72,0,0,0,.07-.74v-1.53a3.7,3.7,0,1,0-7.4,0v1.53c0,.08,0,.16,0,.24l-1.44.1c0-.11,0-.22,0-.34v-1.53a5.14,5.14,0,1,1,10.28,0v1.53A5.14,5.14,0,0,1,525.32,191.45Z"/><circle class="cls-7" cx="520.26" cy="193.44" r="0.94"/><path class="cls-7" d="M526.67,193.45a6.41,6.41,0,1,1-6.41-6.1A6.19,6.19,0,0,1,526.67,193.45Zm-10.74,0a4.33,4.33,0,0,0,4.35,4.3,4.28,4.28,0,1,0-4.35-4.3Z"/><polygon class="cls-7" points="519.99 194.08 519.6 195.5 520.92 195.5 520.47 194.08 519.99 194.08"/><circle class="cls-22" cx="66.51" cy="194" r="17.46"/><path class="cls-7" d="M72,193.78l-1.41-.29a3.72,3.72,0,0,0,.07-.74v-1.53a3.7,3.7,0,1,0-7.4,0v1.53c0,.08,0,.16,0,.24l-1.44.1c0-.11,0-.22,0-.34v-1.53a5.14,5.14,0,0,1,10.28,0v1.53A5.14,5.14,0,0,1,72,193.78Z"/><circle class="cls-7" cx="66.96" cy="195.78" r="0.94"/><path class="cls-7" d="M73.37,195.79a6.41,6.41,0,1,1-6.41-6.1A6.19,6.19,0,0,1,73.37,195.79Zm-10.74,0a4.33,4.33,0,0,0,4.35,4.3,4.28,4.28,0,1,0-4.35-4.3Z"/><polygon class="cls-7" points="66.69 196.42 66.3 197.83 67.62 197.83 67.18 196.42 66.69 196.42"/></svg>