<svg id="Layer_1" data-name="Layer 1" xmlns="http://www.w3.org/2000/svg" viewBox="0 0 90 90"><defs><style>.cls-1{fill:#fff;}</style></defs><title>lock-white</title><circle class="cls-1" cx="45" cy="51.77" r="3.59"/><path class="cls-1" d="M69.38,51.8c0,13.14-10.65,23.33-24.38,23.33S20.62,64.94,20.62,51.8,31.27,28.6,45,28.6,69.38,38.66,69.38,51.8Zm-43.75,0A19.37,19.37,0,0,0,45.08,71,19.14,19.14,0,1,0,25.64,51.79Z"/><polygon class="cls-1" points="43.97 54.19 42.49 59.58 47.51 59.58 45.81 54.19 43.97 54.19"/><path class="cls-1" d="M45.07,14.87A19.58,19.58,0,0,0,25.51,34.43v5.81c0,.43,0,.86,0,1.29l3.1-.22A19.72,19.72,0,0,1,31,38.44v-4a14.08,14.08,0,1,1,28.17,0V38.6a19.65,19.65,0,0,1,3.61,5.28l1.46.3a19.56,19.56,0,0,0,.4-3.93V34.43A19.58,19.58,0,0,0,45.07,14.87Z"/></svg>