<svg id="Layer_1" data-name="Layer 1" xmlns="http://www.w3.org/2000/svg" viewBox="0 0 187.77 48.67"><defs><style>.cls-1{fill:#fff;}.cls-2{fill:#26b99a;}.cls-3{fill:#209e84;}.cls-4{fill:#2c3e50;}</style></defs><title>logo-dark-bg</title><path class="cls-1" d="M158.79,22.87l-2.31-.47a6.09,6.09,0,0,0,.12-1.22v-2.5a6.06,6.06,0,1,0-12.11,0v2.5c0,.13,0,.26,0,.39l-2.35.16c0-.18,0-.37,0-.55v-2.5a8.41,8.41,0,0,1,16.82,0v2.5A8.41,8.41,0,0,1,158.79,22.87Z"/><circle class="cls-1" cx="150.52" cy="26.14" r="1.54"/><path class="cls-2" d="M51.89,16.26c5,0,7.83,2.46,7.83,6.75,0,4.47-2.85,7.06-7.83,7.06H47.34v6H44V16.26ZM47.34,27.08h4.41c3.05,0,4.78-1.3,4.78-4s-1.72-3.84-4.78-3.84H47.34Z"/><path class="cls-2" d="M66.35,19.26V24.6H76v3H66.35V33H77.49v3H63V16.26H77.15v3Z"/><path class="cls-2" d="M84.89,19.26V24.6h9.66v3H84.89V33H96v3H81.55V16.26H95.68v3Z"/><path class="cls-2" d="M109,30.05c-.28,0-.59,0-.9,0h-4.69v6h-3.33V16.26h8c5.06,0,8,2.46,8,6.75,0,3.17-1.47,5.4-4.1,6.42L116.42,36h-3.79Zm-.9-3c3.05,0,4.8-1.3,4.8-4s-1.75-3.84-4.8-3.84h-4.69v7.83Z"/><path class="cls-1" d="M137,26.32v7.29a13.4,13.4,0,0,1-7.69,2.57,10.08,10.08,0,0,1-10.4-10c0-5.65,4.61-10,10.6-10a11.88,11.88,0,0,1,7.6,2.77l-1.89,2.46a8.6,8.6,0,0,0-5.71-2.26,7,7,0,1,0,0,14A9.22,9.22,0,0,0,134,31.83V26.32Z"/><path class="cls-1" d="M161,26.15c0,5.65-4.58,10-10.48,10S140,31.8,140,26.15s4.58-10,10.48-10S161,20.5,161,26.15Zm-17.58,0a7.09,7.09,0,0,0,7.12,7,7,7,0,1,0-7.12-7Z"/><path class="cls-1" d="M178,18.15l-1.38,2.94a11.83,11.83,0,0,0-5.79-1.84c-1.95,0-3.22.73-3.22,2.06,0,4.32,10.68,2,10.65,9.13,0,3.53-3.11,5.71-7.46,5.71A12.17,12.17,0,0,1,162.7,33l1.44-2.88a10.43,10.43,0,0,0,6.7,2.88c2.32,0,3.7-.88,3.7-2.4,0-4.41-10.68-1.95-10.68-9,0-3.39,2.91-5.51,7.21-5.51A12.87,12.87,0,0,1,178,18.15Z"/><polygon class="cls-1" points="150.08 27.18 149.44 29.5 151.6 29.5 150.87 27.18 150.08 27.18"/><polygon class="cls-2" points="28.08 38.3 10.93 38.3 13.12 15.17 25.9 15.17 28.08 38.3"/><polygon class="cls-2" points="25.92 8.33 25.92 9.5 23.34 9.5 23.34 8.33 20.8 8.33 20.8 9.5 18.22 9.5 18.22 8.33 15.67 8.33 15.67 9.5 13.1 9.5 13.1 8.33 10.55 8.33 10.55 9.5 10.55 10.88 10.55 12.61 28.46 12.61 28.46 10.88 28.46 9.5 28.46 8.33 25.92 8.33"/><polygon class="cls-3" points="10.55 12.61 13.12 15.17 25.9 15.17 28.46 12.61 10.55 12.61"/><polygon class="cls-3" points="8.49 39.17 10.93 37.43 28.08 37.43 30.53 39.17 8.49 39.17"/><path class="cls-4" d="M22.8,25.85l-.92-.19a2.42,2.42,0,0,0,0-.48v-1a2.41,2.41,0,1,0-4.82,0v1c0,.05,0,.1,0,.16l-.93.06c0-.07,0-.15,0-.22v-1a3.34,3.34,0,1,1,6.69,0v1A3.34,3.34,0,0,1,22.8,25.85Z"/><circle class="cls-4" cx="19.51" cy="27.15" r="0.61"/><path class="cls-4" d="M23.68,27.16a4,4,0,0,1-4.17,4,4,4,0,1,1,0-8A4,4,0,0,1,23.68,27.16Zm-7,0A2.82,2.82,0,0,0,19.52,30a2.79,2.79,0,1,0-2.83-2.8Z"/><polygon class="cls-4" points="19.33 27.57 19.08 28.49 19.94 28.49 19.65 27.57 19.33 27.57"/></svg>