<svg id="Layer_1" data-name="Layer 1" xmlns="http://www.w3.org/2000/svg" viewBox="0 0 213.21 100.84"><defs><style>.cls-1,.cls-13,.cls-2,.cls-9{fill:#35495e;}.cls-1,.cls-13,.cls-14,.cls-17,.cls-2,.cls-3{stroke:#2c3e50;}.cls-1,.cls-13,.cls-14,.cls-15,.cls-16,.cls-17,.cls-18,.cls-2,.cls-3,.cls-5,.cls-6,.cls-8{stroke-miterlimit:10;}.cls-1{stroke-width:1.38px;}.cls-2{stroke-width:1.48px;}.cls-12,.cls-14,.cls-3{fill:#26b99a;}.cls-3{stroke-width:1.44px;}.cls-15,.cls-4,.cls-8{fill:#14a085;}.cls-16,.cls-17,.cls-18,.cls-5,.cls-6{fill:none;}.cls-16,.cls-18,.cls-5,.cls-6{stroke:#fff;}.cls-5{stroke-width:0.39px;}.cls-6{stroke-width:0.19px;}.cls-7{fill:#fff;}.cls-15,.cls-8{stroke:#14a085;}.cls-8{stroke-width:0.42px;}.cls-10{fill:#2c3e50;}.cls-11{fill:#ecf0f1;}.cls-13,.cls-14,.cls-17{stroke-width:1.22px;}.cls-15{stroke-width:0.36px;}.cls-16{stroke-width:0.37px;}.cls-18{stroke-width:0.18px;}</style></defs><title>platforms</title><rect class="cls-1" x="49.9" y="72.16" width="21.43" height="11.74"/><rect class="cls-2" x="11.75" y="6.51" width="98.62" height="67.11" rx="2.91" ry="2.91"/><rect class="cls-3" x="15.34" y="10.33" width="90.72" height="59" rx="1" ry="1"/><rect class="cls-1" x="44.33" y="82.43" width="31.11" height="4.11"/><rect class="cls-4" x="38.27" y="15.65" width="7.77" height="9.72" rx="1.4" ry="1.4"/><line class="cls-5" x1="39.74" y1="17.57" x2="44.49" y2="17.57"/><line class="cls-5" x1="39.74" y1="19.04" x2="42.11" y2="19.04"/><line class="cls-5" x1="39.74" y1="20.51" x2="43.65" y2="20.51"/><line class="cls-5" x1="39.74" y1="21.97" x2="43" y2="21.97"/><line class="cls-5" x1="39.74" y1="23.44" x2="41.69" y2="23.44"/><rect class="cls-4" x="48.46" y="15.65" width="7.77" height="9.72" rx="1.4" ry="1.4"/><line class="cls-5" x1="49.92" y1="17.57" x2="54.68" y2="17.57"/><line class="cls-5" x1="49.92" y1="19.04" x2="52.3" y2="19.04"/><line class="cls-5" x1="49.92" y1="20.51" x2="53.84" y2="20.51"/><line class="cls-5" x1="49.92" y1="21.97" x2="53.18" y2="21.97"/><line class="cls-5" x1="49.92" y1="23.44" x2="51.88" y2="23.44"/><rect class="cls-4" x="58.51" y="15.65" width="7.77" height="9.72" rx="1.4" ry="1.4"/><rect class="cls-6" x="59.63" y="17.57" width="5.54" height="5.54" rx="0.62" ry="0.62"/><polygon class="cls-7" points="60.18 23.12 61.83 21.58 62.8 22.42 63.73 20.69 64.89 23.03 64.39 23.12 60.18 23.12"/><circle class="cls-7" cx="60.99" cy="19.51" r="0.61"/><rect class="cls-4" x="38.27" y="28.11" width="7.77" height="9.72" rx="1.4" ry="1.4"/><rect class="cls-6" x="39.39" y="30.04" width="5.54" height="5.54" rx="0.62" ry="0.62"/><polygon class="cls-7" points="39.94 35.58 41.59 34.05 42.56 34.88 43.5 33.15 44.65 35.49 44.16 35.58 39.94 35.58"/><circle class="cls-7" cx="40.76" cy="31.97" r="0.61"/><rect class="cls-4" x="48.41" y="28.29" width="7.77" height="9.72" rx="1.4" ry="1.4"/><line class="cls-5" x1="49.87" y1="30.22" x2="54.63" y2="30.22"/><line class="cls-5" x1="49.87" y1="31.68" x2="52.25" y2="31.68"/><line class="cls-5" x1="49.87" y1="33.15" x2="53.79" y2="33.15"/><line class="cls-5" x1="49.87" y1="34.62" x2="53.14" y2="34.62"/><line class="cls-5" x1="49.87" y1="36.08" x2="51.83" y2="36.08"/><rect class="cls-4" x="68.36" y="15.65" width="7.77" height="9.72" rx="1.4" ry="1.4"/><path class="cls-7" d="M70.07,20.6l1.38.58v.35l-1.69-.73v-.4l1.69-.73V20Z"/><path class="cls-7" d="M71.51,22.34l1.25-3.67h.39L71.9,22.34Z"/><path class="cls-7" d="M74.41,20.58,73,20v-.35l1.69.73v.4L73,21.51v-.35Z"/><path class="cls-8" d="M16.44,11.23H33.6a0,0,0,0,1,0,0V68.37a0,0,0,0,1,0,0H16.44A.4.4,0,0,1,16,68V11.63A.4.4,0,0,1,16.44,11.23Z"/><path class="cls-7" d="M25.77,16.85l-.91-.91H21.7v5.89h7.25v-5Z"/><path class="cls-9" d="M182.35,37.82h21.37a2.35,2.35,0,0,1,2.35,2.35V85a2.35,2.35,0,0,1-2.35,2.35h-21A2.35,2.35,0,0,1,180.35,85V39.82a2,2,0,0,1,2-2Z"/><path class="cls-10" d="M203.27,87.58h-20.1a3.09,3.09,0,0,1-3.09-3.09V40.63a3.09,3.09,0,0,1,3.09-3.09h20.1a3.09,3.09,0,0,1,3.09,3.09V84.49A3.09,3.09,0,0,1,203.27,87.58ZM183.16,38.1a2.53,2.53,0,0,0-2.53,2.53V84.49A2.53,2.53,0,0,0,183.16,87h20.1a2.53,2.53,0,0,0,2.53-2.53V40.63a2.53,2.53,0,0,0-2.53-2.53Z"/><rect class="cls-11" x="187.94" y="41.4" width="1.27" height="0.28"/><rect class="cls-11" x="190.76" y="41.4" width="7.31" height="0.28"/><circle class="cls-11" cx="192.86" cy="39.86" r="0.42"/><rect class="cls-12" x="182.88" y="43.65" width="20.66" height="38.3" rx="1" ry="1"/><path class="cls-10" d="M202.87,82.1h-19.3a.82.82,0,0,1-.82-.82V44.33a.82.82,0,0,1,.82-.82h19.3a.82.82,0,0,1,.82.82V81.28A.82.82,0,0,1,202.87,82.1Zm-19.3-38.3a.54.54,0,0,0-.54.54V81.28a.54.54,0,0,0,.54.54h19.3a.54.54,0,0,0,.54-.54V44.33a.54.54,0,0,0-.54-.54Z"/><circle class="cls-4" cx="193.31" cy="62.33" r="7.24"/><path class="cls-11" d="M193.22,85.82a1.34,1.34,0,1,1,1.34-1.34A1.34,1.34,0,0,1,193.22,85.82Zm0-2.39a1.05,1.05,0,1,0,1.05,1.05A1.06,1.06,0,0,0,193.22,83.43Z"/><path class="cls-7" d="M193.68,60.24l-.73-.73h-2.56v4.75h5.84v-4Z"/><circle class="cls-4" cx="195.67" cy="64.26" r="2.02"/><circle class="cls-7" cx="196.02" cy="64.22" r="0.46"/><rect class="cls-7" x="195.71" y="63.4" width="2.14" height="0.14" transform="translate(12.76 157.73) rotate(-45)"/><rect class="cls-7" x="196.71" y="63.91" width="0.14" height="2.16" transform="translate(11.69 158.18) rotate(-45)"/><rect class="cls-7" x="196.02" y="64.15" width="2.23" height="0.14"/><circle class="cls-4" cx="197.53" cy="62.71" r="0.42"/><path class="cls-7" d="M197.53,63.2a.49.49,0,1,1,.49-.49A.49.49,0,0,1,197.53,63.2Zm0-.84a.35.35,0,1,0,.35.35A.35.35,0,0,0,197.53,62.36Z"/><circle class="cls-7" cx="198.25" cy="64.26" r="0.42"/><path class="cls-7" d="M198.25,64.75a.49.49,0,1,1,.49-.49A.49.49,0,0,1,198.25,64.75Zm0-.84a.35.35,0,1,0,.35.35A.35.35,0,0,0,198.25,63.91Z"/><circle class="cls-4" cx="197.55" cy="65.75" r="0.42"/><path class="cls-7" d="M197.55,66.24a.49.49,0,1,1,.49-.49A.49.49,0,0,1,197.55,66.24Zm0-.84a.35.35,0,1,0,.35.35A.35.35,0,0,0,197.55,65.4Z"/><rect class="cls-13" x="72.79" y="31.68" width="83.73" height="53.65" rx="2.91" ry="2.91"/><rect class="cls-14" x="75.84" y="34.73" width="77.02" height="49.79" rx="1" ry="1"/><rect class="cls-4" x="95.96" y="39.82" width="7.46" height="9.33" rx="1.4" ry="1.4"/><path class="cls-15" d="M77,35.51H92.5a0,0,0,0,1,0,0V80.6a0,0,0,0,1,0,0H76.55a0,0,0,0,1,0,0V35.91A.4.4,0,0,1,77,35.51Z"/><line class="cls-16" x1="97.36" y1="41.67" x2="101.92" y2="41.67"/><line class="cls-16" x1="97.36" y1="43.08" x2="99.64" y2="43.08"/><line class="cls-16" x1="97.36" y1="44.49" x2="101.12" y2="44.49"/><line class="cls-16" x1="97.36" y1="45.9" x2="100.49" y2="45.9"/><line class="cls-16" x1="97.36" y1="47.3" x2="99.24" y2="47.3"/><rect class="cls-4" x="105.73" y="39.82" width="7.46" height="9.33" rx="1.4" ry="1.4"/><line class="cls-16" x1="107.14" y1="41.67" x2="111.7" y2="41.67"/><line class="cls-16" x1="107.14" y1="43.08" x2="109.42" y2="43.08"/><line class="cls-16" x1="107.14" y1="44.49" x2="110.9" y2="44.49"/><line class="cls-16" x1="107.14" y1="45.9" x2="110.27" y2="45.9"/><line class="cls-16" x1="107.14" y1="47.3" x2="109.02" y2="47.3"/><path class="cls-13" d="M62.83,81.27H167.49a0,0,0,0,1,0,0v4.89a1,1,0,0,1-1,1H63.83a1,1,0,0,1-1-1V81.27A0,0,0,0,1,62.83,81.27Z"/><line class="cls-17" x1="108.15" y1="82.49" x2="122.78" y2="82.49"/><path class="cls-7" d="M84.73,41.33l-.59-.59H82.09v3.82h4.7V41.33Z"/><rect class="cls-4" x="115.38" y="39.82" width="7.46" height="9.33" rx="1.4" ry="1.4"/><rect class="cls-18" x="116.45" y="41.67" width="5.32" height="5.32" rx="0.62" ry="0.62"/><polygon class="cls-7" points="116.98 46.99 118.57 45.52 119.5 46.32 120.4 44.66 121.51 46.91 121.03 46.99 116.98 46.99"/><circle class="cls-7" cx="117.77" cy="43.53" r="0.59"/><rect class="cls-4" x="95.96" y="51.79" width="7.46" height="9.33" rx="1.4" ry="1.4"/><rect class="cls-18" x="97.03" y="53.64" width="5.32" height="5.32" rx="0.62" ry="0.62"/><polygon class="cls-7" points="97.56 58.96 99.14 57.49 100.07 58.29 100.97 56.63 102.08 58.87 101.61 58.96 97.56 58.96"/><circle class="cls-7" cx="98.34" cy="55.5" r="0.59"/><rect class="cls-4" x="105.69" y="51.96" width="7.46" height="9.33" rx="1.4" ry="1.4"/><line class="cls-16" x1="107.09" y1="53.81" x2="111.66" y2="53.81"/><line class="cls-16" x1="107.09" y1="55.22" x2="109.37" y2="55.22"/><line class="cls-16" x1="107.09" y1="56.63" x2="110.85" y2="56.63"/><line class="cls-16" x1="107.09" y1="58.03" x2="110.22" y2="58.03"/><line class="cls-16" x1="107.09" y1="59.44" x2="108.97" y2="59.44"/><rect class="cls-4" x="124.84" y="39.82" width="7.46" height="9.33" rx="1.4" ry="1.4"/><path class="cls-7" d="M126.48,44.58l1.33.56v.34l-1.62-.7v-.38l1.62-.7V44Z"/><path class="cls-7" d="M127.86,46.25l1.2-3.53h.37l-1.2,3.53Z"/><path class="cls-7" d="M130.65,44.56,129.32,44v-.34l1.62.7v.38l-1.62.7v-.34Z"/></svg>