<svg id="Layer_1" data-name="Layer 1" xmlns="http://www.w3.org/2000/svg" viewBox="0 0 90 90"><defs><style>.cls-1{fill:#fff;}.cls-2{fill:#26b99a;stroke:#2c3e50;stroke-miterlimit:10;stroke-width:2.83px;}</style></defs><title>secure-graph</title><circle class="cls-1" cx="79.99" cy="47.61" r="5.08"/><circle class="cls-1" cx="5.9" cy="44.39" r="2.03"/><circle class="cls-1" cx="39.39" cy="23.08" r="3.05"/><circle class="cls-1" cx="49.54" cy="48.45" r="3.05"/><circle class="cls-1" cx="18.08" cy="73.83" r="5.08"/><circle class="cls-1" cx="27.21" cy="42.36" r="2.03"/><circle class="cls-1" cx="76.42" cy="17.64" r="2.03"/><circle class="cls-1" cx="60.71" cy="67.74" r="2.03"/><rect class="cls-1" x="5.85" y="42.87" width="21.41" height="1.01" transform="translate(-4.02 1.76) rotate(-5.42)"/><rect class="cls-1" x="13.6" y="60.63" width="40.42" height="1.02" transform="translate(-30.89 34.78) rotate(-38.89)"/><rect class="cls-1" x="54.62" y="46.95" width="1.02" height="22.28" transform="translate(-21.69 35.44) rotate(-30.07)"/><rect class="cls-1" x="43.96" y="22.1" width="1.02" height="27.33" transform="translate(-10.1 19.07) rotate(-21.8)"/><rect class="cls-1" x="49.54" y="47.94" width="30.45" height="1.02"/><circle class="cls-1" cx="60.71" cy="10.9" r="2.03"/><circle class="cls-1" cx="15.03" cy="30.18" r="2.03"/><circle class="cls-1" cx="62.74" cy="28.15" r="2.03"/><rect class="cls-1" x="61.22" y="10.84" width="1.01" height="17.37" transform="translate(-1.86 7.35) rotate(-6.71)"/><rect class="cls-1" x="60.57" y="22.06" width="16.52" height="1.01" transform="translate(2.83 52.43) rotate(-42.5)"/><rect class="cls-1" x="14.53" y="26.16" width="25.38" height="0.94" transform="matrix(0.96, -0.28, 0.28, 0.96, -6.37, 8.69)"/><rect class="cls-1" x="6.31" y="57.43" width="32.52" height="0.94" transform="translate(-39.41 62.38) rotate(-72.84)"/><rect class="cls-1" x="21.91" y="32.25" width="22.48" height="0.94" transform="translate(-11.95 44.36) rotate(-59.1)"/><rect class="cls-1" x="71.07" y="25.32" width="0.94" height="25.5" transform="translate(-7.25 57.03) rotate(-41.55)"/><circle class="cls-2" cx="47.46" cy="42.55" r="16.53"/><path class="cls-1" d="M57.32,38.24l-3.55-3.55a.25.25,0,0,0-.36,0l-8.07,8.07L41.5,38.92a.25.25,0,0,0-.36,0l-3.55,3.55a.25.25,0,0,0,0,.36l4,4,2.84,2.84.71.71a.25.25,0,0,0,.36,0l11.8-11.8A.25.25,0,0,0,57.32,38.24Z"/></svg>