<?xml version="1.0" encoding="utf-8"?>
<!-- Generator: Adobe Illustrator 14.0.0, SVG Export Plug-In . SVG Version: 6.00 Build 43363)  -->
<!DOCTYPE svg PUBLIC "-//W3C//DTD SVG 1.1//EN" "http://www.w3.org/Graphics/SVG/1.1/DTD/svg11.dtd">
<svg version="1.1" xmlns="http://www.w3.org/2000/svg" xmlns:xlink="http://www.w3.org/1999/xlink" x="0px" y="0px" width="32px"
	 height="32px" viewBox="0 0 32 32" enable-background="new 0 0 32 32" xml:space="preserve">
<g id="Background" display="none">
	<rect display="inline" width="32" height="32"/>
	<rect display="inline" fill="none" width="32" height="32"/>
</g>
<g id="GitHub" display="none">
	<rect display="inline" fill="none" width="32" height="32.001"/>
	<path display="inline" fill="#FFFFFF" d="M16,5.16c-6.139,0-11.116,4.976-11.116,11.118c0,4.909,3.184,9.075,7.602,10.546
		c0.557,0.101,0.759-0.243,0.759-0.537c0-0.264-0.008-0.963-0.015-1.891c-3.092,0.672-3.744-1.489-3.744-1.489
		c-0.506-1.284-1.235-1.625-1.235-1.625c-1.009-0.69,0.077-0.677,0.077-0.677c1.116,0.079,1.703,1.146,1.703,1.146
		c0.99,1.699,2.601,1.206,3.235,0.923c0.1-0.719,0.387-1.207,0.704-1.485c-2.468-0.279-5.063-1.235-5.063-5.495
		c0-1.211,0.434-2.205,1.143-2.981c-0.113-0.282-0.495-1.412,0.11-2.942c0,0,0.933-0.299,3.057,1.14
		c0.887-0.247,1.839-0.371,2.783-0.375c0.944,0.004,1.896,0.128,2.782,0.375c2.123-1.439,3.056-1.14,3.056-1.14
		c0.605,1.531,0.225,2.661,0.109,2.942c0.711,0.776,1.143,1.77,1.143,2.981c0,4.271-2.6,5.211-5.076,5.487
		c0.398,0.343,0.756,1.02,0.756,2.058c0,1.485-0.014,2.685-0.014,3.049c0,0.297,0.2,0.643,0.765,0.533
		c4.412-1.471,7.595-5.635,7.595-10.542C27.116,10.136,22.141,5.16,16,5.16"/>
</g>
<g id="buddycloud">
	<path fill="#FFFFFF" d="M17,10h-1v4h1c2.762,0,5,2.238,5,5s-2.238,5-5,5s-5-2.238-5-5v-7.48V0H8v19c0,4.969,4.031,9,9,9
		s9-4.031,9-9S21.969,10,17,10z"/>
	<rect fill="none" width="32" height="32"/>
</g>
<g id="Twitter" display="none">
	<path display="inline" fill="#FFFFFF" d="M26.666,9.384c-0.785,0.349-1.629,0.584-2.514,0.689c0.903-0.542,1.599-1.399,1.925-2.421
		c-0.846,0.501-1.781,0.866-2.778,1.063c-0.8-0.852-1.938-1.383-3.195-1.383c-2.418,0-4.377,1.96-4.377,4.376
		c0,0.344,0.039,0.677,0.113,0.997c-3.637-0.182-6.862-1.924-9.021-4.573C6.442,8.78,6.226,9.532,6.226,10.333
		c0,1.518,0.772,2.859,1.946,3.643c-0.717-0.022-1.392-0.22-1.982-0.547v0.055c0,2.12,1.509,3.889,3.51,4.292
		c-0.367,0.1-0.754,0.154-1.153,0.154c-0.281,0-0.556-0.028-0.823-0.08c0.556,1.739,2.173,3.004,4.088,3.041
		c-1.497,1.173-3.384,1.873-5.436,1.873c-0.353,0-0.701-0.021-1.043-0.062c1.937,1.241,4.237,1.966,6.71,1.966
		c8.049,0,12.452-6.668,12.452-12.452c0-0.189-0.005-0.378-0.013-0.567C25.336,11.033,26.078,10.262,26.666,9.384z"/>
</g>
<g id="LinkedIn" display="none">
	<rect display="inline" fill="none" width="32" height="32"/>
	<path display="inline" fill="#FFFFFF" d="M6.329,12.671h4.148V26H6.329V12.671z M8.405,6.045c1.326,0,2.401,1.076,2.401,2.401
		s-1.075,2.402-2.401,2.402C7.073,10.849,6,9.771,6,8.446S7.073,6.045,8.405,6.045"/>
	<path display="inline" fill="#FFFFFF" d="M13.079,12.671h3.973v1.821h0.057c0.553-1.049,1.906-2.153,3.922-2.153
		c4.195,0,4.97,2.76,4.97,6.35V26h-4.141v-6.481c0-1.547-0.031-3.535-2.154-3.535c-2.157,0-2.487,1.684-2.487,3.421V26h-4.139
		V12.671z"/>
</g>
</svg>
