<?xml version="1.0" encoding="utf-8"?>
<!-- Generator: Adobe Illustrator 14.0.0, SVG Export Plug-In . SVG Version: 6.00 Build 43363)  -->
<!DOCTYPE svg PUBLIC "-//W3C//DTD SVG 1.1//EN" "http://www.w3.org/Graphics/SVG/1.1/DTD/svg11.dtd">
<svg version="1.1" xmlns="http://www.w3.org/2000/svg" xmlns:xlink="http://www.w3.org/1999/xlink" x="0px" y="0px" width="32px"
	 height="32px" viewBox="0 0 32 32" enable-background="new 0 0 32 32" xml:space="preserve">
<g id="Background" display="none">
	<rect y="0" display="inline" width="32" height="32"/>
</g>
<g id="GitHub" display="none">
	<rect display="inline" fill="none" width="32" height="32.001"/>
	<path display="inline" fill="#FFFFFF" d="M16,5.16c-6.139,0-11.116,4.976-11.116,11.118c0,4.909,3.184,9.075,7.602,10.546
		c0.557,0.101,0.759-0.243,0.759-0.537c0-0.264-0.008-0.963-0.015-1.891c-3.092,0.672-3.744-1.489-3.744-1.489
		c-0.506-1.284-1.235-1.625-1.235-1.625c-1.009-0.69,0.077-0.677,0.077-0.677c1.116,0.079,1.703,1.146,1.703,1.146
		c0.99,1.699,2.601,1.206,3.235,0.923c0.1-0.719,0.387-1.207,0.704-1.485c-2.468-0.279-5.063-1.235-5.063-5.495
		c0-1.211,0.434-2.205,1.143-2.981c-0.113-0.282-0.495-1.412,0.11-2.942c0,0,0.933-0.299,3.057,1.14
		c0.887-0.247,1.839-0.371,2.783-0.375c0.944,0.004,1.896,0.128,2.782,0.375c2.123-1.439,3.056-1.14,3.056-1.14
		c0.605,1.531,0.225,2.661,0.109,2.942c0.711,0.776,1.143,1.77,1.143,2.981c0,4.271-2.6,5.211-5.076,5.487
		c0.398,0.343,0.756,1.02,0.756,2.058c0,1.485-0.014,2.685-0.014,3.049c0,0.297,0.2,0.643,0.765,0.533
		c4.412-1.471,7.595-5.635,7.595-10.542C27.116,10.136,22.141,5.16,16,5.16"/>
</g>
<g id="buddycloud" display="none">
	<path display="inline" fill="#FFFFFF" d="M17,10h-1v4h1c2.762,0,5,2.238,5,5s-2.238,5-5,5s-5-2.238-5-5v-7.48V0H8v19
		c0,4.969,4.031,9,9,9s9-4.031,9-9S21.969,10,17,10z"/>
	<rect display="inline" fill="none" width="32" height="32"/>
</g>
<g id="Google_x2B_" display="none">
	<path display="inline" fill="#FFFFFF" d="M16.528,22.065c0-0.17-0.019-0.331-0.061-0.487c-0.037-0.158-0.069-0.297-0.109-0.43
		c-0.039-0.134-0.113-0.273-0.212-0.416c-0.098-0.146-0.178-0.269-0.25-0.365c-0.071-0.1-0.18-0.219-0.317-0.355
		c-0.146-0.139-0.253-0.236-0.329-0.306c-0.086-0.071-0.213-0.172-0.389-0.312c-0.184-0.133-0.303-0.227-0.369-0.267
		c-0.073-0.053-0.208-0.146-0.408-0.284c-0.189-0.131-0.307-0.22-0.361-0.246c-0.126-0.02-0.333-0.028-0.597-0.028
		c-0.438,0-0.862,0.031-1.277,0.085c-0.412,0.059-0.853,0.154-1.291,0.303c-0.451,0.139-0.839,0.327-1.191,0.548
		c-0.327,0.228-0.601,0.53-0.818,0.898c-0.224,0.384-0.319,0.814-0.319,1.296c0,0.543,0.126,1.027,0.421,1.454
		c0.289,0.433,0.653,0.765,1.114,1.012c0.459,0.24,0.941,0.427,1.451,0.544c0.499,0.119,1.016,0.183,1.528,0.183
		c0.464,0,0.92-0.05,1.341-0.148c0.432-0.105,0.84-0.258,1.211-0.471c0.385-0.213,0.678-0.507,0.904-0.885
		C16.415,23.011,16.528,22.573,16.528,22.065 M15.091,11.708c0-0.484-0.069-0.99-0.204-1.532c-0.136-0.543-0.322-1.066-0.568-1.569
		c-0.239-0.506-0.584-0.923-1.014-1.255c-0.421-0.326-0.898-0.493-1.432-0.493c-0.749,0-1.315,0.282-1.732,0.831
		C9.729,8.246,9.53,8.908,9.53,9.675c0,0.378,0.049,0.769,0.134,1.188c0.093,0.417,0.239,0.835,0.427,1.25
		c0.193,0.414,0.415,0.796,0.672,1.124c0.263,0.333,0.572,0.603,0.941,0.815c0.365,0.201,0.759,0.311,1.175,0.311
		c0.775,0,1.333-0.241,1.68-0.727C14.911,13.15,15.091,12.51,15.091,11.708 M13.505,6h5.259l-1.622,0.951h-1.629
		c0.574,0.361,1.016,0.857,1.324,1.508c0.308,0.651,0.465,1.326,0.465,2.035c0,0.591-0.093,1.121-0.271,1.579
		c-0.182,0.458-0.405,0.836-0.672,1.107c-0.259,0.288-0.529,0.542-0.79,0.778c-0.272,0.236-0.493,0.481-0.671,0.738
		c-0.196,0.251-0.282,0.519-0.282,0.809c0,0.208,0.061,0.41,0.192,0.61c0.137,0.206,0.312,0.397,0.522,0.579
		c0.217,0.183,0.446,0.376,0.71,0.58c0.249,0.197,0.506,0.423,0.763,0.666c0.258,0.243,0.495,0.506,0.697,0.789
		c0.221,0.288,0.396,0.629,0.519,1.021c0.13,0.399,0.198,0.825,0.198,1.287c0,1.276-0.555,2.407-1.685,3.388
		C15.325,25.47,13.634,26,11.487,26c-0.462,0-0.949-0.044-1.439-0.125c-0.484-0.077-0.975-0.215-1.46-0.403
		c-0.49-0.184-0.925-0.419-1.311-0.696c-0.367-0.271-0.678-0.63-0.915-1.065C6.114,23.266,6,22.781,6,22.247
		c0-0.485,0.145-1.029,0.442-1.621c0.251-0.519,0.647-0.955,1.156-1.329c0.514-0.372,1.09-0.657,1.736-0.856
		c0.647-0.194,1.274-0.337,1.871-0.432c0.595-0.089,1.189-0.145,1.801-0.161c-0.52-0.67-0.774-1.263-0.774-1.792
		c0-0.091,0.006-0.19,0.03-0.279c0.016-0.096,0.029-0.167,0.063-0.233c0.023-0.065,0.049-0.156,0.091-0.263
		c0.043-0.106,0.07-0.195,0.08-0.257c-0.321,0.044-0.592,0.06-0.84,0.06c-1.187,0-2.221-0.393-3.068-1.179
		c-0.849-0.787-1.274-1.769-1.274-2.95c0-1.128,0.378-2.133,1.141-3.021c0.751-0.881,1.687-1.445,2.807-1.692
		C12.013,6.076,12.767,6,13.505,6 M26,9.073v1.537h-3.086v3.08h-1.541v-3.08h-3.062V9.073h3.062V6h1.541v3.073H26z"/>
</g>
<g id="email" display="none">
	<path display="inline" fill="#FFFFFF" d="M26.252,22.174l-6.226-6.159l6.225-6.158L26.252,22.174L26.252,22.174z M6.81,23.344
		l6.236-6.153l0.266,0.252c1.473,1.388,3.812,1.388,5.223,0l0.268-0.264l6.266,6.165H6.81z M5.691,9.856l6.215,6.158L5.68,22.174
		L5.691,9.856L5.691,9.856z M25.057,8.681l-7.657,7.563c-0.778,0.775-2.171,0.758-2.972-0.029L6.821,8.681H25.057z M4,7
		c0,0.705,0,17.289,0,18c0.725,0,23.275,0,24,0c0-0.711,0-17.295,0-18C27.275,7,4.725,7,4,7z"/>
</g>
<g id="Layer_8" display="none">
	<polygon display="inline" fill="#FFFFFF" points="27,24 5,24 5,8 16,17 27,8 	"/>
	<polygon display="inline" fill="#FFFFFF" points="5,8 27,8 16,15 	"/>
</g>
<g id="Layer_8_copy">
	<polygon fill="#FFFFFF" points="27,24 5,24 5,8 16,17 27,8 	"/>
	<polygon fill="#FFFFFF" points="5,8 27,8 16,15 	"/>
</g>
<g id="Twitter" display="none">
	<path display="inline" fill="#FFFFFF" d="M26.666,9.384c-0.785,0.349-1.629,0.584-2.514,0.689c0.903-0.542,1.599-1.399,1.925-2.421
		c-0.846,0.501-1.781,0.866-2.778,1.063c-0.8-0.852-1.938-1.383-3.195-1.383c-2.418,0-4.377,1.96-4.377,4.376
		c0,0.344,0.039,0.677,0.113,0.997c-3.637-0.182-6.862-1.924-9.021-4.573C6.442,8.78,6.226,9.532,6.226,10.333
		c0,1.518,0.772,2.859,1.946,3.643c-0.717-0.022-1.392-0.22-1.982-0.547v0.055c0,2.12,1.509,3.889,3.51,4.292
		c-0.367,0.1-0.754,0.154-1.153,0.154c-0.281,0-0.556-0.028-0.823-0.08c0.556,1.739,2.173,3.004,4.088,3.041
		c-1.497,1.173-3.384,1.873-5.436,1.873c-0.353,0-0.701-0.021-1.043-0.062c1.937,1.241,4.237,1.966,6.71,1.966
		c8.049,0,12.452-6.668,12.452-12.452c0-0.189-0.005-0.378-0.013-0.567C25.336,11.033,26.078,10.262,26.666,9.384z"/>
</g>
<g id="LinkedIn" display="none">
	<rect display="inline" fill="none" width="32" height="32"/>
	<path display="inline" fill="#FFFFFF" d="M6.329,12.671h4.148V26H6.329V12.671z M8.405,6.045c1.326,0,2.401,1.076,2.401,2.401
		s-1.075,2.402-2.401,2.402C7.073,10.849,6,9.771,6,8.446S7.073,6.045,8.405,6.045"/>
	<path display="inline" fill="#FFFFFF" d="M13.079,12.671h3.973v1.821h0.057c0.553-1.049,1.906-2.153,3.922-2.153
		c4.195,0,4.97,2.76,4.97,6.35V26h-4.141v-6.481c0-1.547-0.031-3.535-2.154-3.535c-2.157,0-2.487,1.684-2.487,3.421V26h-4.139
		V12.671z"/>
</g>
</svg>
