<?xml version="1.0" encoding="utf-8"?>
<!-- Generator: Adobe Illustrator 14.0.0, SVG Export Plug-In . SVG Version: 6.00 Build 43363)  -->
<!DOCTYPE svg PUBLIC "-//W3C//DTD SVG 1.1//EN" "http://www.w3.org/Graphics/SVG/1.1/DTD/svg11.dtd">
<svg version="1.1" xmlns="http://www.w3.org/2000/svg" xmlns:xlink="http://www.w3.org/1999/xlink" x="0px" y="0px" width="32px"
	 height="32px" viewBox="0 0 32 32" enable-background="new 0 0 32 32" xml:space="preserve">
<g id="Layer_2" display="none">
	<rect display="inline" width="32" height="32"/>
	<rect display="inline" fill="none" width="32" height="32"/>
</g>
<g id="Twitter">
	<path fill="#FFFFFF" d="M26.666,9.384c-0.785,0.349-1.629,0.584-2.514,0.689c0.903-0.542,1.599-1.399,1.925-2.421
		c-0.846,0.501-1.781,0.866-2.778,1.063c-0.8-0.852-1.938-1.383-3.195-1.383c-2.418,0-4.377,1.96-4.377,4.376
		c0,0.344,0.039,0.677,0.113,0.997c-3.637-0.182-6.862-1.924-9.021-4.573C6.442,8.78,6.226,9.532,6.226,10.333
		c0,1.518,0.772,2.859,1.946,3.643c-0.717-0.022-1.392-0.22-1.982-0.547v0.055c0,2.12,1.509,3.889,3.51,4.292
		c-0.367,0.1-0.754,0.154-1.153,0.154c-0.281,0-0.556-0.028-0.823-0.08c0.556,1.739,2.173,3.004,4.088,3.041
		c-1.497,1.173-3.384,1.873-5.436,1.873c-0.353,0-0.701-0.021-1.043-0.062c1.937,1.241,4.237,1.966,6.71,1.966
		c8.049,0,12.452-6.668,12.452-12.452c0-0.189-0.005-0.378-0.013-0.567C25.336,11.033,26.078,10.262,26.666,9.384z"/>
</g>
<g id="Layer_1" display="none">
	<rect display="inline" fill="none" width="32" height="32"/>
	<path display="inline" fill="#FFFFFF" d="M8.228,13.313h3.326V24H8.228V13.313z M9.892,8c1.063,0,1.926,0.863,1.926,1.926
		c0,1.063-0.862,1.927-1.926,1.927c-1.068,0-1.928-0.864-1.928-1.927C7.964,8.863,8.824,8,9.892,8"/>
	<path display="inline" fill="#FFFFFF" d="M13.64,13.313h3.186v1.461h0.045c0.443-0.841,1.528-1.726,3.145-1.726
		c3.363,0,3.984,2.212,3.984,5.091V24h-3.32v-5.195c0-1.241-0.024-2.835-1.728-2.835c-1.729,0-1.993,1.35-1.993,2.742V24h-3.32
		V13.313z"/>
</g>
</svg>
