<?xml version="1.0" encoding="UTF-8" standalone="no"?>
<!DOCTYPE svg PUBLIC "-//W3C//DTD SVG 1.1//EN"
 "http://www.w3.org/Graphics/SVG/1.1/DTD/svg11.dtd">
<!-- Generated by graphviz version 2.38.0 (20140413.2041)
 -->
<!-- Title: mygraph Pages: 1 -->
<svg width="405pt" height="338pt"
 viewBox="0.00 0.00 405.39 337.91" xmlns="http://www.w3.org/2000/svg" xmlns:xlink="http://www.w3.org/1999/xlink">
<g id="graph0" class="graph" transform="scale(1 1) rotate(0) translate(4 333.907)">
<title>mygraph</title>
<polygon fill="white" stroke="none" points="-4,4 -4,-333.907 401.394,-333.907 401.394,4 -4,4"/>
<!-- a -->
<g id="node1" class="node"><title>a</title>
<ellipse fill="none" stroke="darkblue" cx="159.697" cy="-303.037" rx="99.9045" ry="26.7407"/>
<text text-anchor="middle" x="159.697" y="-306.837" font-family="Times,serif" font-size="14.00">IPFS</text>
<text text-anchor="middle" x="159.697" y="-291.837" font-family="Times,serif" font-size="14.00">hash =&gt; data fragment</text>
</g>
<!-- c -->
<g id="node3" class="node"><title>c</title>
<ellipse fill="none" stroke="purple" cx="159.697" cy="-222.167" rx="62.2891" ry="18"/>
<text text-anchor="middle" x="159.697" y="-218.467" font-family="Times,serif" font-size="14.00">Peergos server</text>
</g>
<!-- a&#45;&#45;c -->
<g id="edge1" class="edge"><title>a&#45;&#45;c</title>
<path fill="none" stroke="blue" d="M159.697,-275.774C159.697,-264.123 159.697,-250.739 159.697,-240.387"/>
</g>
<!-- b -->
<g id="node2" class="node"><title>b</title>
<ellipse fill="none" stroke="darkorange" cx="198.697" cy="-48.0833" rx="198.894" ry="48.1667"/>
<text text-anchor="middle" x="198.697" y="-66.8833" font-family="Times,serif" font-size="14.00">Corenode/blockchain</text>
<text text-anchor="middle" x="198.697" y="-51.8833" font-family="Times,serif" font-size="14.00">username =&gt; public key chain</text>
<text text-anchor="middle" x="198.697" y="-36.8833" font-family="Times,serif" font-size="14.00">username =&gt; pending encrypted follow requests</text>
<text text-anchor="middle" x="198.697" y="-21.8833" font-family="Times,serif" font-size="14.00">public key =&gt; root multihash</text>
</g>
<!-- d -->
<g id="node4" class="node"><title>d</title>
<ellipse fill="none" stroke="red" cx="121.697" cy="-150.167" rx="32.4942" ry="18"/>
<text text-anchor="middle" x="121.697" y="-146.467" font-family="Times,serif" font-size="14.00">Client</text>
</g>
<!-- c&#45;&#45;d -->
<g id="edge4" class="edge"><title>c&#45;&#45;d</title>
<path fill="none" stroke="blue" d="M150.498,-204.221C144.524,-193.216 136.769,-178.93 130.811,-167.956"/>
</g>
<!-- t -->
<g id="node5" class="node"><title>t</title>
<ellipse fill="none" stroke="green" cx="198.697" cy="-150.167" rx="27" ry="18"/>
<text text-anchor="middle" x="198.697" y="-146.467" font-family="Times,serif" font-size="14.00">Tor</text>
</g>
<!-- c&#45;&#45;t -->
<g id="edge3" class="edge"><title>c&#45;&#45;t</title>
<path fill="none" stroke="blue" d="M169.138,-204.221C175.36,-193.054 183.463,-178.509 189.612,-167.474"/>
</g>
<!-- t&#45;&#45;b -->
<g id="edge2" class="edge"><title>t&#45;&#45;b</title>
<path fill="none" stroke="blue" d="M198.697,-131.733C198.697,-121.876 198.697,-109.03 198.697,-96.4139"/>
</g>
</g>
</svg>
