<?xml version="1.0" encoding="UTF-8" standalone="no"?>
<!DOCTYPE svg PUBLIC "-//W3C//DTD SVG 1.1//EN"
 "http://www.w3.org/Graphics/SVG/1.1/DTD/svg11.dtd">
<!-- Generated by graphviz version 2.38.0 (20140413.2041)
 -->
<!-- Title: mygraph Pages: 1 -->
<svg width="504pt" height="282pt"
 viewBox="0.00 0.00 504.00 281.98" xmlns="http://www.w3.org/2000/svg" xmlns:xlink="http://www.w3.org/1999/xlink">
<g id="graph0" class="graph" transform="scale(0.697978 0.697978) rotate(0) translate(4 400)">
<title>mygraph</title>
<polygon fill="white" stroke="none" points="-4,4 -4,-400 718.085,-400 718.085,4 -4,4"/>
<!-- sig -->
<g id="node1" class="node"><title>sig</title>
<ellipse fill="none" stroke="blue" cx="447.543" cy="-378" rx="76.8869" ry="18"/>
<text text-anchor="middle" x="447.543" y="-374.3" font-family="Times,serif" font-size="14.00">Public signing key</text>
</g>
<!-- btree -->
<g id="node2" class="node"><title>btree</title>
<ellipse fill="none" stroke="blue" cx="447.543" cy="-306" rx="44.6926" ry="18"/>
<text text-anchor="middle" x="447.543" y="-302.3" font-family="Times,serif" font-size="14.00">btree root</text>
</g>
<!-- sig&#45;&gt;btree -->
<g id="edge1" class="edge"><title>sig&#45;&gt;btree</title>
<path fill="none" stroke="blue" d="M447.543,-359.697C447.543,-351.983 447.543,-342.712 447.543,-334.112"/>
<polygon fill="blue" stroke="blue" points="451.043,-334.104 447.543,-324.104 444.043,-334.104 451.043,-334.104"/>
</g>
<!-- t1_1 -->
<g id="node3" class="node"><title>t1_1</title>
<ellipse fill="none" stroke="blue" cx="323.543" cy="-234" rx="32.4942" ry="18"/>
<text text-anchor="middle" x="323.543" y="-230.3" font-family="Times,serif" font-size="14.00">label1</text>
</g>
<!-- btree&#45;&gt;t1_1 -->
<g id="edge2" class="edge"><title>btree&#45;&gt;t1_1</title>
<path fill="none" stroke="blue" d="M422.449,-290.834C402.846,-279.768 375.503,-264.333 354.534,-252.495"/>
<polygon fill="blue" stroke="blue" points="356.118,-249.37 345.689,-247.502 352.677,-255.466 356.118,-249.37"/>
</g>
<!-- t1_2 -->
<g id="node4" class="node"><title>t1_2</title>
<ellipse fill="none" stroke="blue" cx="406.543" cy="-234" rx="32.4942" ry="18"/>
<text text-anchor="middle" x="406.543" y="-230.3" font-family="Times,serif" font-size="14.00">label2</text>
</g>
<!-- btree&#45;&gt;t1_2 -->
<g id="edge3" class="edge"><title>btree&#45;&gt;t1_2</title>
<path fill="none" stroke="blue" d="M437.826,-288.411C432.924,-280.042 426.873,-269.71 421.402,-260.37"/>
<polygon fill="blue" stroke="blue" points="424.264,-258.33 416.189,-251.47 418.223,-261.868 424.264,-258.33"/>
</g>
<!-- t1_3 -->
<g id="node5" class="node"><title>t1_3</title>
<ellipse fill="none" stroke="blue" cx="489.543" cy="-234" rx="32.4942" ry="18"/>
<text text-anchor="middle" x="489.543" y="-230.3" font-family="Times,serif" font-size="14.00">label3</text>
</g>
<!-- btree&#45;&gt;t1_3 -->
<g id="edge4" class="edge"><title>btree&#45;&gt;t1_3</title>
<path fill="none" stroke="blue" d="M457.496,-288.411C462.57,-279.955 468.846,-269.494 474.496,-260.078"/>
<polygon fill="blue" stroke="blue" points="477.517,-261.846 479.661,-251.47 471.514,-258.244 477.517,-261.846"/>
</g>
<!-- t1_4 -->
<g id="node6" class="node"><title>t1_4</title>
<ellipse fill="none" stroke="blue" cx="572.543" cy="-234" rx="32.4942" ry="18"/>
<text text-anchor="middle" x="572.543" y="-230.3" font-family="Times,serif" font-size="14.00">label4</text>
</g>
<!-- btree&#45;&gt;t1_4 -->
<g id="edge5" class="edge"><title>btree&#45;&gt;t1_4</title>
<path fill="none" stroke="blue" d="M472.538,-291.003C492.398,-279.881 520.275,-264.27 541.553,-252.354"/>
<polygon fill="blue" stroke="blue" points="543.504,-255.273 550.519,-247.333 540.084,-249.166 543.504,-255.273"/>
</g>
<!-- t2_1 -->
<g id="node7" class="node"><title>t2_1</title>
<ellipse fill="none" stroke="blue" cx="256.543" cy="-162" rx="40.8928" ry="18"/>
<text text-anchor="middle" x="256.543" y="-158.3" font-family="Times,serif" font-size="14.00">label2_1</text>
</g>
<!-- t1_2&#45;&gt;t2_1 -->
<g id="edge6" class="edge"><title>t1_2&#45;&gt;t2_1</title>
<path fill="none" stroke="blue" d="M382.443,-221.753C358.292,-210.483 320.81,-192.991 293.017,-180.021"/>
<polygon fill="blue" stroke="blue" points="294.17,-176.697 283.628,-175.64 291.21,-183.04 294.17,-176.697"/>
</g>
<!-- t2_2 -->
<g id="node8" class="node"><title>t2_2</title>
<ellipse fill="none" stroke="blue" cx="356.543" cy="-162" rx="40.8928" ry="18"/>
<text text-anchor="middle" x="356.543" y="-158.3" font-family="Times,serif" font-size="14.00">label2_2</text>
</g>
<!-- t1_2&#45;&gt;t2_2 -->
<g id="edge7" class="edge"><title>t1_2&#45;&gt;t2_2</title>
<path fill="none" stroke="blue" d="M395.197,-217.116C388.957,-208.38 381.08,-197.353 374.068,-187.535"/>
<polygon fill="blue" stroke="blue" points="376.851,-185.41 368.191,-179.307 371.155,-189.479 376.851,-185.41"/>
</g>
<!-- t2_3 -->
<g id="node9" class="node"><title>t2_3</title>
<ellipse fill="none" stroke="blue" cx="456.543" cy="-162" rx="40.8928" ry="18"/>
<text text-anchor="middle" x="456.543" y="-158.3" font-family="Times,serif" font-size="14.00">label2_3</text>
</g>
<!-- t1_2&#45;&gt;t2_3 -->
<g id="edge8" class="edge"><title>t1_2&#45;&gt;t2_3</title>
<path fill="none" stroke="blue" d="M417.888,-217.116C424.128,-208.38 432.005,-197.353 439.018,-187.535"/>
<polygon fill="blue" stroke="blue" points="441.93,-189.479 444.895,-179.307 436.234,-185.41 441.93,-189.479"/>
</g>
<!-- t2_4 -->
<g id="node10" class="node"><title>t2_4</title>
<ellipse fill="none" stroke="blue" cx="556.543" cy="-162" rx="40.8928" ry="18"/>
<text text-anchor="middle" x="556.543" y="-158.3" font-family="Times,serif" font-size="14.00">label2_4</text>
</g>
<!-- t1_2&#45;&gt;t2_4 -->
<g id="edge9" class="edge"><title>t1_2&#45;&gt;t2_4</title>
<path fill="none" stroke="blue" d="M430.643,-221.753C454.793,-210.483 492.276,-192.991 520.069,-180.021"/>
<polygon fill="blue" stroke="blue" points="521.876,-183.04 529.458,-175.64 518.916,-176.697 521.876,-183.04"/>
</g>
<!-- crypt -->
<g id="node11" class="node"><title>crypt</title>
<ellipse fill="none" stroke="blue" cx="356.543" cy="-90" rx="61.1893" ry="18"/>
<text text-anchor="middle" x="356.543" y="-86.3" font-family="Times,serif" font-size="14.00">Cryptree node</text>
</g>
<!-- t2_2&#45;&gt;crypt -->
<g id="edge10" class="edge"><title>t2_2&#45;&gt;crypt</title>
<path fill="none" stroke="blue" d="M356.543,-143.697C356.543,-135.983 356.543,-126.712 356.543,-118.112"/>
<polygon fill="blue" stroke="blue" points="360.043,-118.104 356.543,-108.104 353.043,-118.104 360.043,-118.104"/>
</g>
<!-- f1 -->
<g id="node12" class="node"><title>f1</title>
<ellipse fill="none" stroke="blue" cx="82.5427" cy="-18" rx="82.5854" ry="18"/>
<text text-anchor="middle" x="82.5427" y="-14.3" font-family="Times,serif" font-size="14.00">Ciphertext fragment</text>
</g>
<!-- crypt&#45;&gt;f1 -->
<g id="edge11" class="edge"><title>crypt&#45;&gt;f1</title>
<path fill="none" stroke="blue" d="M311.91,-77.5975C266.275,-65.9389 195.046,-47.7416 144.075,-34.7199"/>
<polygon fill="blue" stroke="blue" points="144.719,-31.2722 134.164,-32.188 142.987,-38.0544 144.719,-31.2722"/>
</g>
<!-- f2 -->
<g id="node13" class="node"><title>f2</title>
<ellipse fill="none" stroke="blue" cx="265.543" cy="-18" rx="82.5854" ry="18"/>
<text text-anchor="middle" x="265.543" y="-14.3" font-family="Times,serif" font-size="14.00">Ciphertext fragment</text>
</g>
<!-- crypt&#45;&gt;f2 -->
<g id="edge12" class="edge"><title>crypt&#45;&gt;f2</title>
<path fill="none" stroke="blue" d="M335.437,-72.7646C323.549,-63.6205 308.508,-52.0503 295.427,-41.9876"/>
<polygon fill="blue" stroke="blue" points="297.226,-38.9564 287.166,-35.6334 292.958,-44.5047 297.226,-38.9564"/>
</g>
<!-- f3 -->
<g id="node14" class="node"><title>f3</title>
<ellipse fill="none" stroke="blue" cx="448.543" cy="-18" rx="82.5854" ry="18"/>
<text text-anchor="middle" x="448.543" y="-14.3" font-family="Times,serif" font-size="14.00">Ciphertext fragment</text>
</g>
<!-- crypt&#45;&gt;f3 -->
<g id="edge13" class="edge"><title>crypt&#45;&gt;f3</title>
<path fill="none" stroke="blue" d="M377.881,-72.7646C390.101,-63.4665 405.618,-51.6599 418.997,-41.4806"/>
<polygon fill="blue" stroke="blue" points="421.163,-44.2305 427.002,-35.3898 416.924,-38.6596 421.163,-44.2305"/>
</g>
<!-- f4 -->
<g id="node15" class="node"><title>f4</title>
<ellipse fill="none" stroke="blue" cx="631.543" cy="-18" rx="82.5854" ry="18"/>
<text text-anchor="middle" x="631.543" y="-14.3" font-family="Times,serif" font-size="14.00">Ciphertext fragment</text>
</g>
<!-- crypt&#45;&gt;f4 -->
<g id="edge14" class="edge"><title>crypt&#45;&gt;f4</title>
<path fill="none" stroke="blue" d="M401.338,-77.5975C447.14,-65.9389 518.629,-47.7416 569.786,-34.7199"/>
<polygon fill="blue" stroke="blue" points="570.905,-38.0467 579.733,-32.188 569.178,-31.263 570.905,-38.0467"/>
</g>
</g>
</svg>
