<?xml version="1.0" encoding="UTF-8" standalone="no"?>
<!DOCTYPE svg PUBLIC "-//W3C//DTD SVG 1.1//EN"
 "http://www.w3.org/Graphics/SVG/1.1/DTD/svg11.dtd">
<!-- Generated by graphviz version 2.38.0 (20140413.2041)
 -->
<!-- Title: mygraph Pages: 1 -->
<svg width="422pt" height="349pt"
 viewBox="0.00 0.00 421.50 349.00" xmlns="http://www.w3.org/2000/svg" xmlns:xlink="http://www.w3.org/1999/xlink">
<g id="graph0" class="graph" transform="scale(1 1) rotate(0) translate(4 345)">
<title>mygraph</title>
<polygon fill="white" stroke="none" points="-4,4 -4,-345 417.5,-345 417.5,4 -4,4"/>
<!-- l0 -->
<g id="node1" class="node"><title>l0</title>
<text text-anchor="middle" x="59.5" y="-319.3" font-family="Times,serif" font-size="14.00">directory</text>
</g>
<!-- l1 -->
<g id="node2" class="node"><title>l1</title>
<polygon fill="lightpink" stroke="lightpink" points="100,-269 19,-269 19,-233 100,-233 100,-269"/>
<text text-anchor="middle" x="59.5" y="-247.3" font-family="Times,serif" font-size="14.00"> &#160;Base key &#160;</text>
</g>
<!-- l0&#45;&gt;l1 -->
<!-- l2 -->
<g id="node3" class="node"><title>l2</title>
<polygon fill="lightpink" stroke="lightpink" points="99.5,-197 17.5,-197 17.5,-161 99.5,-161 99.5,-197"/>
<text text-anchor="middle" x="58.5" y="-175.3" font-family="Times,serif" font-size="14.00"> Parent key </text>
</g>
<!-- l1&#45;&gt;l2 -->
<g id="edge2" class="edge"><title>l1&#45;&gt;l2</title>
<path fill="none" stroke="black" d="M59.2528,-232.697C59.1426,-224.983 59.0102,-215.712 58.8873,-207.112"/>
<polygon fill="black" stroke="black" points="62.3869,-207.053 58.7443,-197.104 55.3876,-207.153 62.3869,-207.053"/>
</g>
<!-- m1 -->
<g id="node7" class="node"><title>m1</title>
<polygon fill="lightpink" stroke="lightpink" points="199,-269 118,-269 118,-233 199,-233 199,-269"/>
<text text-anchor="middle" x="158.5" y="-247.3" font-family="Times,serif" font-size="14.00"> &#160;Base key &#160;</text>
</g>
<!-- l1&#45;&gt;m1 -->
<g id="edge11" class="edge"><title>l1&#45;&gt;m1</title>
<path fill="none" stroke="black" d="M100.105,-237.936C102.7,-237.682 105.295,-237.539 107.89,-237.507"/>
<polygon fill="black" stroke="black" points="107.757,-241.004 117.898,-237.936 108.057,-234.011 107.757,-241.004"/>
</g>
<!-- l3 -->
<g id="node4" class="node"><title>l3</title>
<polygon fill="lightpink" stroke="lightpink" points="91,-125 0,-125 0,-89 91,-89 91,-125"/>
<text text-anchor="middle" x="45.5" y="-103.3" font-family="Times,serif" font-size="14.00">Metadata key</text>
</g>
<!-- l2&#45;&gt;l3 -->
<g id="edge3" class="edge"><title>l2&#45;&gt;l3</title>
<path fill="none" stroke="black" d="M55.2865,-160.697C53.8539,-152.983 52.1323,-143.712 50.5352,-135.112"/>
<polygon fill="black" stroke="black" points="53.9437,-134.297 48.6765,-125.104 47.0614,-135.575 53.9437,-134.297"/>
</g>
<!-- m2 -->
<g id="node8" class="node"><title>m2</title>
<polygon fill="lightpink" stroke="lightpink" points="199.5,-197 117.5,-197 117.5,-161 199.5,-161 199.5,-197"/>
<text text-anchor="middle" x="158.5" y="-175.3" font-family="Times,serif" font-size="14.00"> Parent key </text>
</g>
<!-- l2&#45;&gt;m2 -->
<!-- l4 -->
<g id="node5" class="node"><title>l4</title>
<text text-anchor="middle" x="45.5" y="-22.8" font-family="Times,serif" font-size="14.00">ianopolous</text>
</g>
<!-- l3&#45;&gt;l4 -->
<g id="edge4" class="edge"><title>l3&#45;&gt;l4</title>
<path fill="none" stroke="black" d="M45.5,-88.9667C45.5,-78.9885 45.5,-66.154 45.5,-54.796"/>
<polygon fill="black" stroke="black" points="49.0001,-54.5001 45.5,-44.5001 42.0001,-54.5001 49.0001,-54.5001"/>
</g>
<!-- m0 -->
<g id="node6" class="node"><title>m0</title>
<text text-anchor="middle" x="158.5" y="-319.3" font-family="Times,serif" font-size="14.00">sub&#45;directory</text>
</g>
<!-- m0&#45;&gt;m1 -->
<!-- m1&#45;&gt;l1 -->
<!-- m1&#45;&gt;m2 -->
<g id="edge6" class="edge"><title>m1&#45;&gt;m2</title>
<path fill="none" stroke="black" d="M158.5,-232.697C158.5,-224.983 158.5,-215.712 158.5,-207.112"/>
<polygon fill="black" stroke="black" points="162,-207.104 158.5,-197.104 155,-207.104 162,-207.104"/>
</g>
<!-- r2 -->
<g id="node12" class="node"><title>r2</title>
<polygon fill="lightpink" stroke="lightpink" points="299.5,-197 217.5,-197 217.5,-161 299.5,-161 299.5,-197"/>
<text text-anchor="middle" x="258.5" y="-175.3" font-family="Times,serif" font-size="14.00"> Parent key </text>
</g>
<!-- m1&#45;&gt;r2 -->
<g id="edge13" class="edge"><title>m1&#45;&gt;r2</title>
<path fill="none" stroke="black" d="M182.963,-232.876C195.796,-223.893 211.696,-212.763 225.594,-203.034"/>
<polygon fill="black" stroke="black" points="227.758,-205.792 233.943,-197.19 223.744,-200.057 227.758,-205.792"/>
</g>
<!-- m2&#45;&gt;l2 -->
<g id="edge16" class="edge"><title>m2&#45;&gt;l2</title>
<path fill="none" stroke="black" d="M117.487,-165.936C114.867,-165.682 112.246,-165.539 109.625,-165.507"/>
<polygon fill="black" stroke="black" points="109.358,-162.015 99.5156,-165.936 109.655,-169.009 109.358,-162.015"/>
</g>
<!-- m3 -->
<g id="node9" class="node"><title>m3</title>
<polygon fill="lightpink" stroke="lightpink" points="200,-125 109,-125 109,-89 200,-89 200,-125"/>
<text text-anchor="middle" x="154.5" y="-103.3" font-family="Times,serif" font-size="14.00">Metadata key</text>
</g>
<!-- m2&#45;&gt;m3 -->
<g id="edge7" class="edge"><title>m2&#45;&gt;m3</title>
<path fill="none" stroke="black" d="M157.511,-160.697C157.07,-152.983 156.541,-143.712 156.049,-135.112"/>
<polygon fill="black" stroke="black" points="159.542,-134.888 155.477,-125.104 152.554,-135.288 159.542,-134.888"/>
</g>
<!-- m2&#45;&gt;r2 -->
<!-- m4 -->
<g id="node10" class="node"><title>m4</title>
<text text-anchor="middle" x="151.5" y="-22.8" font-family="Times,serif" font-size="14.00">work</text>
</g>
<!-- m3&#45;&gt;m4 -->
<g id="edge8" class="edge"><title>m3&#45;&gt;m4</title>
<path fill="none" stroke="black" d="M153.849,-88.9667C153.468,-78.9885 152.977,-66.154 152.543,-54.796"/>
<polygon fill="black" stroke="black" points="156.029,-54.3591 152.15,-44.5001 149.034,-54.6265 156.029,-54.3591"/>
</g>
<!-- r0 -->
<g id="node11" class="node"><title>r0</title>
<text text-anchor="middle" x="258.5" y="-319.3" font-family="Times,serif" font-size="14.00">file</text>
</g>
<!-- r0&#45;&gt;r2 -->
<!-- r2&#45;&gt;m2 -->
<g id="edge14" class="edge"><title>r2&#45;&gt;m2</title>
<path fill="none" stroke="black" d="M217.487,-165.936C214.867,-165.682 212.246,-165.539 209.625,-165.507"/>
<polygon fill="black" stroke="black" points="209.358,-162.015 199.516,-165.936 209.655,-169.009 209.358,-162.015"/>
</g>
<!-- r3 -->
<g id="node13" class="node"><title>r3</title>
<polygon fill="lightpink" stroke="lightpink" points="309,-125 218,-125 218,-89 309,-89 309,-125"/>
<text text-anchor="middle" x="263.5" y="-103.3" font-family="Times,serif" font-size="14.00">Metadata key</text>
</g>
<!-- r2&#45;&gt;r3 -->
<g id="edge9" class="edge"><title>r2&#45;&gt;r3</title>
<path fill="none" stroke="black" d="M259.736,-160.697C260.287,-152.983 260.949,-143.712 261.563,-135.112"/>
<polygon fill="black" stroke="black" points="265.057,-135.328 262.278,-125.104 258.075,-134.83 265.057,-135.328"/>
</g>
<!-- rr3 -->
<g id="node15" class="node"><title>rr3</title>
<text text-anchor="middle" x="370.5" y="-103.3" font-family="Times,serif" font-size="14.00">File contents</text>
</g>
<!-- r2&#45;&gt;rr3 -->
<g id="edge18" class="edge"><title>r2&#45;&gt;rr3</title>
<path fill="none" stroke="black" d="M285.898,-160.876C300.407,-151.808 318.416,-140.552 334.085,-130.759"/>
<polygon fill="black" stroke="black" points="336.371,-133.458 342.996,-125.19 332.661,-127.522 336.371,-133.458"/>
</g>
<!-- r4 -->
<g id="node14" class="node"><title>r4</title>
<text text-anchor="middle" x="265.5" y="-37.8" font-family="Times,serif" font-size="14.00">thesis.tex,</text>
<text text-anchor="middle" x="265.5" y="-22.8" font-family="Times,serif" font-size="14.00">2 MiB,</text>
<text text-anchor="middle" x="265.5" y="-7.8" font-family="Times,serif" font-size="14.00">modified: 2009&#45;09&#45;30</text>
</g>
<!-- r3&#45;&gt;r4 -->
<g id="edge10" class="edge"><title>r3&#45;&gt;r4</title>
<path fill="none" stroke="black" d="M263.934,-88.9667C264.126,-81.4475 264.358,-72.3063 264.585,-63.3971"/>
<polygon fill="black" stroke="black" points="268.09,-63.2422 264.846,-53.1563 261.093,-63.0639 268.09,-63.2422"/>
</g>
</g>
</svg>
