<?xml version="1.0" encoding="UTF-8" standalone="no"?>
<!DOCTYPE svg PUBLIC "-//W3C//DTD SVG 1.1//EN"
 "http://www.w3.org/Graphics/SVG/1.1/DTD/svg11.dtd">
<!-- Generated by graphviz version 2.38.0 (20140413.2041)
 -->
<!-- Title: mygraph Pages: 1 -->
<svg width="382pt" height="260pt"
 viewBox="0.00 0.00 382.44 260.00" xmlns="http://www.w3.org/2000/svg" xmlns:xlink="http://www.w3.org/1999/xlink">
<g id="graph0" class="graph" transform="scale(1 1) rotate(0) translate(4 256)">
<title>mygraph</title>
<polygon fill="white" stroke="none" points="-4,4 -4,-256 378.443,-256 378.443,4 -4,4"/>
<!-- a1 -->
<g id="node1" class="node"><title>a1</title>
<ellipse fill="none" stroke="darkblue" cx="57.5975" cy="-234" rx="28.6953" ry="18"/>
<text text-anchor="middle" x="57.5975" y="-230.3" font-family="Times,serif" font-size="14.00">IPFS</text>
</g>
<!-- a2 -->
<g id="node2" class="node"><title>a2</title>
<ellipse fill="none" stroke="darkblue" cx="57.5975" cy="-162" rx="28.6953" ry="18"/>
<text text-anchor="middle" x="57.5975" y="-158.3" font-family="Times,serif" font-size="14.00">IPFS</text>
</g>
<!-- a1&#45;&#45;a2 -->
<g id="edge1" class="edge"><title>a1&#45;&#45;a2</title>
<path fill="none" stroke="blue" d="M57.5975,-215.697C57.5975,-204.846 57.5975,-190.917 57.5975,-180.104"/>
</g>
<!-- a3 -->
<g id="node3" class="node"><title>a3</title>
<ellipse fill="none" stroke="darkblue" cx="28.5975" cy="-90" rx="28.6953" ry="18"/>
<text text-anchor="middle" x="28.5975" y="-86.3" font-family="Times,serif" font-size="14.00">IPFS</text>
</g>
<!-- a1&#45;&#45;a3 -->
<g id="edge2" class="edge"><title>a1&#45;&#45;a3</title>
<path fill="none" stroke="blue" d="M43.0958,-218.203C34.4342,-208.288 24.2404,-194.444 19.5975,-180 11.8031,-155.752 17.6889,-126.046 22.9259,-107.827"/>
</g>
<!-- c1 -->
<g id="node6" class="node"><title>c1</title>
<ellipse fill="none" stroke="purple" cx="166.597" cy="-162" rx="62.2891" ry="18"/>
<text text-anchor="middle" x="166.597" y="-158.3" font-family="Times,serif" font-size="14.00">Peergos server</text>
</g>
<!-- a1&#45;&#45;c1 -->
<g id="edge4" class="edge"><title>a1&#45;&#45;c1</title>
<path fill="none" stroke="blue" d="M76.8336,-220.647C95.0463,-208.95 122.467,-191.341 142.207,-178.664"/>
</g>
<!-- a2&#45;&#45;a3 -->
<g id="edge3" class="edge"><title>a2&#45;&#45;a3</title>
<path fill="none" stroke="blue" d="M50.7249,-144.411C46.169,-133.414 40.2088,-119.027 35.6222,-107.956"/>
</g>
<!-- c2 -->
<g id="node7" class="node"><title>c2</title>
<ellipse fill="none" stroke="purple" cx="256.597" cy="-90" rx="62.2891" ry="18"/>
<text text-anchor="middle" x="256.597" y="-86.3" font-family="Times,serif" font-size="14.00">Peergos server</text>
</g>
<!-- a2&#45;&#45;c2 -->
<g id="edge5" class="edge"><title>a2&#45;&#45;c2</title>
<path fill="none" stroke="blue" d="M79.9414,-150.546C85.045,-148.287 90.4751,-145.983 95.5975,-144 135.526,-128.543 182.076,-113.536 214.821,-103.46"/>
</g>
<!-- b -->
<g id="node4" class="node"><title>b</title>
<ellipse fill="none" stroke="darkorange" cx="329.597" cy="-162" rx="44.6926" ry="18"/>
<text text-anchor="middle" x="329.597" y="-158.3" font-family="Times,serif" font-size="14.00">Corenode</text>
</g>
<!-- t -->
<g id="node5" class="node"><title>t</title>
<ellipse fill="none" stroke="green" cx="256.597" cy="-234" rx="27" ry="18"/>
<text text-anchor="middle" x="256.597" y="-230.3" font-family="Times,serif" font-size="14.00">Tor</text>
</g>
<!-- t&#45;&#45;b -->
<g id="edge8" class="edge"><title>t&#45;&#45;b</title>
<path fill="none" stroke="blue" d="M271.37,-218.834C283.452,-207.249 300.528,-190.875 313.064,-178.854"/>
</g>
<!-- t&#45;&#45;c1 -->
<g id="edge6" class="edge"><title>t&#45;&#45;c1</title>
<path fill="none" stroke="blue" d="M239.669,-219.834C224.801,-208.269 203.124,-191.41 187.242,-179.057"/>
</g>
<!-- t&#45;&#45;c2 -->
<g id="edge7" class="edge"><title>t&#45;&#45;c2</title>
<path fill="none" stroke="blue" d="M256.597,-215.871C256.597,-188.578 256.597,-135.52 256.597,-108.189"/>
</g>
<!-- d1 -->
<g id="node8" class="node"><title>d1</title>
<ellipse fill="none" stroke="red" cx="143.597" cy="-90" rx="32.4942" ry="18"/>
<text text-anchor="middle" x="143.597" y="-86.3" font-family="Times,serif" font-size="14.00">Client</text>
</g>
<!-- c1&#45;&#45;d1 -->
<g id="edge9" class="edge"><title>c1&#45;&#45;d1</title>
<path fill="none" stroke="blue" d="M161.03,-144.055C157.414,-133.049 152.72,-118.764 149.114,-107.789"/>
</g>
<!-- d2 -->
<g id="node9" class="node"><title>d2</title>
<ellipse fill="none" stroke="red" cx="214.597" cy="-18" rx="32.4942" ry="18"/>
<text text-anchor="middle" x="214.597" y="-14.3" font-family="Times,serif" font-size="14.00">Client</text>
</g>
<!-- c2&#45;&#45;d2 -->
<g id="edge10" class="edge"><title>c2&#45;&#45;d2</title>
<path fill="none" stroke="blue" d="M246.43,-72.055C239.73,-60.8874 231.003,-46.3427 224.382,-35.307"/>
</g>
<!-- d3 -->
<g id="node10" class="node"><title>d3</title>
<ellipse fill="none" stroke="red" cx="297.597" cy="-18" rx="32.4942" ry="18"/>
<text text-anchor="middle" x="297.597" y="-14.3" font-family="Times,serif" font-size="14.00">Client</text>
</g>
<!-- c2&#45;&#45;d3 -->
<g id="edge11" class="edge"><title>c2&#45;&#45;d3</title>
<path fill="none" stroke="blue" d="M266.522,-72.055C273.063,-60.8874 281.582,-46.3427 288.046,-35.307"/>
</g>
</g>
</svg>
