<?xml version="1.0" encoding="UTF-8" standalone="no"?>
<!DOCTYPE svg PUBLIC "-//W3C//DTD SVG 1.1//EN"
 "http://www.w3.org/Graphics/SVG/1.1/DTD/svg11.dtd">
<!-- Generated by graphviz version 2.38.0 (20140413.2041)
 -->
<!-- Title: mygraph Pages: 1 -->
<svg width="441pt" height="188pt"
 viewBox="0.00 0.00 440.59 188.00" xmlns="http://www.w3.org/2000/svg" xmlns:xlink="http://www.w3.org/1999/xlink">
<g id="graph0" class="graph" transform="scale(1 1) rotate(0) translate(4 184)">
<title>mygraph</title>
<polygon fill="white" stroke="none" points="-4,4 -4,-184 436.588,-184 436.588,4 -4,4"/>
<!-- u -->
<g id="node1" class="node"><title>u</title>
<ellipse fill="none" stroke="darkblue" cx="164.944" cy="-162" rx="44.6926" ry="18"/>
<text text-anchor="middle" x="164.944" y="-158.3" font-family="Times,serif" font-size="14.00">username</text>
</g>
<!-- s -->
<g id="node3" class="node"><title>s</title>
<ellipse fill="none" stroke="purple" cx="217.944" cy="-90" rx="32.4942" ry="18"/>
<text text-anchor="middle" x="217.944" y="-86.3" font-family="Times,serif" font-size="14.00">scrypt</text>
</g>
<!-- u&#45;&gt;s -->
<g id="edge1" class="edge"><title>u&#45;&gt;s</title>
<path fill="none" stroke="blue" d="M177.504,-144.411C184.134,-135.655 192.39,-124.751 199.711,-115.082"/>
<polygon fill="blue" stroke="blue" points="202.593,-117.073 205.839,-106.988 197.012,-112.848 202.593,-117.073"/>
</g>
<!-- p -->
<g id="node2" class="node"><title>p</title>
<ellipse fill="none" stroke="red" cx="271.944" cy="-162" rx="44.393" ry="18"/>
<text text-anchor="middle" x="271.944" y="-158.3" font-family="Times,serif" font-size="14.00">password</text>
</g>
<!-- p&#45;&gt;s -->
<g id="edge2" class="edge"><title>p&#45;&gt;s</title>
<path fill="none" stroke="blue" d="M259.147,-144.411C252.393,-135.655 243.981,-124.751 236.522,-115.082"/>
<polygon fill="blue" stroke="blue" points="239.157,-112.768 230.278,-106.988 233.615,-117.044 239.157,-112.768"/>
</g>
<!-- sig -->
<g id="node4" class="node"><title>sig</title>
<ellipse fill="none" stroke="red" cx="66.9441" cy="-18" rx="66.8882" ry="18"/>
<text text-anchor="middle" x="66.9441" y="-14.3" font-family="Times,serif" font-size="14.00">Signing keypair</text>
</g>
<!-- s&#45;&gt;sig -->
<g id="edge3" class="edge"><title>s&#45;&gt;sig</title>
<path fill="none" stroke="blue" d="M193.683,-77.7533C170.714,-67.1054 135.765,-50.9039 108.381,-38.2092"/>
<polygon fill="blue" stroke="blue" points="109.587,-34.9105 99.0423,-33.88 106.643,-41.2613 109.587,-34.9105"/>
</g>
<!-- box -->
<g id="node5" class="node"><title>box</title>
<ellipse fill="none" stroke="red" cx="217.944" cy="-18" rx="65.7887" ry="18"/>
<text text-anchor="middle" x="217.944" y="-14.3" font-family="Times,serif" font-size="14.00">Boxing keypair</text>
</g>
<!-- s&#45;&gt;box -->
<g id="edge4" class="edge"><title>s&#45;&gt;box</title>
<path fill="none" stroke="blue" d="M217.944,-71.6966C217.944,-63.9827 217.944,-54.7125 217.944,-46.1124"/>
<polygon fill="blue" stroke="blue" points="221.444,-46.1043 217.944,-36.1043 214.444,-46.1044 221.444,-46.1043"/>
</g>
<!-- sym -->
<g id="node6" class="node"><title>sym</title>
<ellipse fill="none" stroke="red" cx="366.944" cy="-18" rx="65.7887" ry="18"/>
<text text-anchor="middle" x="366.944" y="-14.3" font-family="Times,serif" font-size="14.00">Symmetric key</text>
</g>
<!-- s&#45;&gt;sym -->
<g id="edge5" class="edge"><title>s&#45;&gt;sym</title>
<path fill="none" stroke="blue" d="M241.883,-77.7533C264.548,-67.1054 299.034,-50.9039 326.056,-38.2092"/>
<polygon fill="blue" stroke="blue" points="327.708,-41.3 335.271,-33.88 324.732,-34.9643 327.708,-41.3"/>
</g>
</g>
</svg>
