<svg id="Layer_1" data-name="Layer 1" xmlns="http://www.w3.org/2000/svg" viewBox="0 0 36 36"><defs><style>.cls-1{fill:#26b99a;}.cls-2{fill:#209e84;}.cls-3{fill:#fff;}</style></defs><title>logo-tower-only-green</title><rect class="cls-1" x="12.2" y="20.67" width="11.59" height="1.86"/><polygon class="cls-1" points="22.51 20.21 13.49 20.21 14.64 8.04 21.36 8.04 22.51 20.21"/><polygon class="cls-1" points="21.37 4.44 21.37 5.06 20.02 5.06 20.02 4.44 18.68 4.44 18.68 5.06 17.32 5.06 17.32 4.44 15.98 4.44 15.98 5.06 14.63 5.06 14.63 4.44 13.29 4.44 13.29 5.06 13.29 5.78 13.29 6.69 22.71 6.69 22.71 5.78 22.71 5.06 22.71 4.44 21.37 4.44"/><polygon class="cls-2" points="13.29 6.69 14.64 8.04 21.36 8.04 22.71 6.69 13.29 6.69"/><polygon class="cls-2" points="12.2 20.67 13.49 19.75 22.51 19.75 23.8 20.67 12.2 20.67"/><path class="cls-2" d="M19.73,13.66l-.48-.1a2.11,2.11,0,0,0,0-.25v-.53a1.27,1.27,0,0,0-2.53,0v.61l-.49,0v-.64a1.76,1.76,0,1,1,3.52,0v.53A2.09,2.09,0,0,1,19.73,13.66Z"/><circle class="cls-2" cx="18" cy="14.34" r="0.32"/><path class="cls-2" d="M20.19,14.35A2.19,2.19,0,1,1,18,12.26,2.11,2.11,0,0,1,20.19,14.35Zm-3.67,0A1.48,1.48,0,0,0,18,15.82a1.47,1.47,0,0,0,1.47-1.47,1.48,1.48,0,0,0-3,0Z"/><polygon class="cls-2" points="17.91 14.56 17.77 15.04 18.23 15.04 18.07 14.56 17.91 14.56"/><path class="cls-3" d="M29.4,28.53l-.55-.11a1.53,1.53,0,0,0,0-.3v-.59a1.45,1.45,0,1,0-2.89,0v.69l-.56,0c0-.05,0-.09,0-.14v-.59a2,2,0,0,1,4,0v.59A1.84,1.84,0,0,1,29.4,28.53Z"/><circle class="cls-3" cx="27.43" cy="29.31" r="0.37"/><path class="cls-1" d="M3.85,27c1.19,0,1.87.59,1.87,1.61S5,30.25,3.85,30.25H2.76v1.43H2V27ZM2.76,29.54H3.82c.73,0,1.14-.32,1.14-1s-.41-.92-1.14-.92H2.76Z"/><path class="cls-1" d="M7.31,27.66v1.28H9.62v.72H7.31V31H10v.72H6.51V27H9.89v.71Z"/><path class="cls-1" d="M11.74,27.66v1.28h2.31v.72H11.74V31H14.4v.72H10.94V27h3.38v.71Z"/><path class="cls-1" d="M17.51,30.24H16.17v1.43h-.8V27h1.92c1.21,0,1.9.59,1.9,1.61a1.53,1.53,0,0,1-1,1.54l1.06,1.58h-.91Zm-.22-.7c.73,0,1.15-.32,1.15-1s-.42-.92-1.15-.92H16.17v1.88Z"/><path class="cls-3" d="M24.19,29.35V31.1a3.24,3.24,0,0,1-1.84.61,2.39,2.39,0,1,1,0-4.78,2.85,2.85,0,0,1,1.81.66l-.45.59a2,2,0,0,0-1.36-.54,1.68,1.68,0,1,0,0,3.35,2.24,2.24,0,0,0,1.09-.32V29.35Z"/><path class="cls-3" d="M29.93,29.31a2.51,2.51,0,1,1-2.5-2.38A2.42,2.42,0,0,1,29.93,29.31Zm-4.2,0a1.7,1.7,0,0,0,3.39,0,1.7,1.7,0,0,0-3.39,0Z"/><path class="cls-3" d="M34,27.4l-.33.7a2.81,2.81,0,0,0-1.38-.44c-.47,0-.77.18-.77.5,0,1,2.55.48,2.54,2.18,0,.84-.74,1.36-1.78,1.36A2.88,2.88,0,0,1,30.34,31l.34-.68a2.53,2.53,0,0,0,1.6.68c.56,0,.89-.21.89-.57,0-1.05-2.55-.47-2.55-2.15,0-.81.69-1.32,1.72-1.32A3.08,3.08,0,0,1,34,27.4Z"/><polygon class="cls-3" points="27.32 29.56 27.17 30.11 27.69 30.11 27.51 29.56 27.32 29.56"/></svg>