<svg id="Layer_1" data-name="Layer 1" xmlns="http://www.w3.org/2000/svg" viewBox="0 0 151.11 42.93"><defs><style>.cls-1{fill:#2c3e50;}.cls-2{fill:#26b99a;}.cls-3{fill:#209e84;}</style></defs><title>logo-main</title><path class="cls-1" d="M127,19.59l-1.79-.37a4.83,4.83,0,0,0,.09-.94V16.34a4.71,4.71,0,1,0-9.41,0v1.94c0,.1,0,.2,0,.3l-1.83.13c0-.14,0-.29,0-.43V16.34a6.54,6.54,0,1,1,13.07,0v1.94A6.4,6.4,0,0,1,127,19.59Z"/><circle class="cls-1" cx="120.53" cy="22.13" r="1.2"/><path class="cls-2" d="M43.87,14.45c3.86,0,6.08,1.92,6.08,5.25s-2.22,5.49-6.08,5.49H40.33v4.64H37.74V14.45Zm-3.54,8.42h3.43c2.37,0,3.71-1,3.71-3.1s-1.34-3-3.71-3H40.33Z"/><path class="cls-2" d="M55.11,16.78v4.15h7.51v2.33H55.11V27.5h8.65v2.33H52.52V14.45h11v2.33Z"/><path class="cls-2" d="M69.52,16.78v4.15H77v2.33H69.52V27.5h8.65v2.33H66.92V14.45h11v2.33Z"/><path class="cls-2" d="M88.27,25.17c-.22,0-.46,0-.7,0H83.92v4.64H81.33V14.45h6.24c3.93,0,6.19,1.92,6.19,5.25a4.94,4.94,0,0,1-3.18,5L94,29.83H91.08Zm-.7-2.3c2.37,0,3.73-1,3.73-3.1s-1.36-3-3.73-3H83.92v6.09Z"/><path class="cls-1" d="M110,22.27v5.67a10.41,10.41,0,0,1-6,2,7.85,7.85,0,0,1-8.09-7.8c0-4.39,3.58-7.75,8.24-7.75a9.22,9.22,0,0,1,5.91,2.15l-1.47,1.91a6.7,6.7,0,0,0-4.44-1.76,5.46,5.46,0,1,0,0,10.92,7.28,7.28,0,0,0,3.54-1.05V22.27Z"/><path class="cls-1" d="M128.68,22.14a8.16,8.16,0,1,1-8.15-7.75A7.87,7.87,0,0,1,128.68,22.14Zm-13.66,0a5.5,5.5,0,0,0,11,0,5.5,5.5,0,0,0-11,0Z"/><path class="cls-1" d="M141.88,15.93l-1.08,2.28a9.21,9.21,0,0,0-4.5-1.43c-1.52,0-2.51.57-2.51,1.61,0,3.36,8.31,1.56,8.28,7.09,0,2.75-2.41,4.44-5.79,4.44A9.49,9.49,0,0,1,130,27.48l1.12-2.24a8.13,8.13,0,0,0,5.21,2.24c1.8,0,2.88-.68,2.88-1.87,0-3.42-8.31-1.51-8.31-7,0-2.64,2.27-4.29,5.61-4.29A10,10,0,0,1,141.88,15.93Z"/><polygon class="cls-1" points="120.19 22.94 119.69 24.74 121.37 24.74 120.8 22.94 120.19 22.94"/><rect class="cls-2" x="10.13" y="32.26" width="17.13" height="2.74"/><polygon class="cls-2" points="25.36 31.59 12.03 31.59 13.73 13.61 23.67 13.61 25.36 31.59"/><polygon class="cls-2" points="23.68 8.29 23.68 9.2 21.68 9.2 21.68 8.29 19.7 8.29 19.7 9.2 17.7 9.2 17.7 8.29 15.72 8.29 15.72 9.2 13.72 9.2 13.72 8.29 11.74 8.29 11.74 9.2 11.74 10.27 11.74 11.61 25.66 11.61 25.66 10.27 25.66 9.2 25.66 8.29 23.68 8.29"/><polygon class="cls-3" points="11.74 11.61 13.73 13.61 23.67 13.61 25.66 11.61 11.74 11.61"/><polygon class="cls-3" points="10.13 32.26 12.03 30.91 25.36 30.91 27.26 32.26 10.13 32.26"/><path class="cls-3" d="M21.26,21.91l-.72-.15a1.55,1.55,0,0,0,0-.37v-.77a1.87,1.87,0,1,0-3.74,0v.89l-.73,0v-.94a2.6,2.6,0,1,1,5.2,0v.77A3.05,3.05,0,0,1,21.26,21.91Z"/><circle class="cls-3" cx="18.7" cy="22.92" r="0.48"/><path class="cls-3" d="M21.94,22.92A3.13,3.13,0,0,1,18.7,26a3.09,3.09,0,1,1,0-6.18A3.12,3.12,0,0,1,21.94,22.92Zm-5.43,0a2.19,2.19,0,0,0,4.37,0,2.19,2.19,0,0,0-4.37,0Z"/><polygon class="cls-3" points="18.56 23.24 18.36 23.96 19.03 23.96 18.81 23.24 18.56 23.24"/></svg>