<svg id="Layer_1" data-name="Layer 1" xmlns="http://www.w3.org/2000/svg" viewBox="0 0 167.28 168.72"><defs><style>.cls-1{fill:#26b99a;}.cls-2{fill:#209e84;}.cls-3{fill:#2c3e50;}</style></defs><title>logo-box</title><rect class="cls-1" x="61.45" y="94.26" width="44.3" height="7.1"/><polygon class="cls-1" points="100.84 92.5 66.36 92.5 70.75 46.01 96.45 46.01 100.84 92.5"/><polygon class="cls-1" points="96.48 32.26 96.48 34.6 91.31 34.6 91.31 32.26 86.19 32.26 86.19 34.6 81.01 34.6 81.01 32.26 75.9 32.26 75.9 34.6 70.72 34.6 70.72 32.26 65.6 32.26 65.6 34.6 65.6 37.38 65.6 40.85 101.6 40.85 101.6 37.38 101.6 34.6 101.6 32.26 96.48 32.26"/><polygon class="cls-2" points="65.6 40.85 70.75 46.01 96.45 46.01 101.6 40.85 65.6 40.85"/><polygon class="cls-2" points="61.45 94.26 66.36 90.76 100.84 90.76 105.75 94.26 61.45 94.26"/><path class="cls-3" d="M90.21,67.48l-1.84-.38a5.15,5.15,0,0,0,.1-1v-2a4.84,4.84,0,0,0-9.68,0v2c0,.11,0,.21,0,.31l-1.88.13c0-.14,0-.29,0-.44v-2a6.73,6.73,0,0,1,13.45,0v2A6.72,6.72,0,0,1,90.21,67.48Z"/><circle class="cls-3" cx="83.6" cy="70.09" r="1.23"/><path class="cls-3" d="M92,70.1a8.39,8.39,0,1,1-8.38-8A8.09,8.09,0,0,1,92,70.1Zm-14,0a5.67,5.67,0,0,0,5.69,5.63,5.61,5.61,0,1,0-5.69-5.63Z"/><polygon class="cls-3" points="83.25 70.93 82.74 72.78 84.46 72.78 83.88 70.93 83.25 70.93"/><path class="cls-3" d="M127.19,124.3l-2.11-.43a5.88,5.88,0,0,0,.11-1.11v-2.28a5.53,5.53,0,1,0-11.06,0v2.28c0,.12,0,.24,0,.36l-2.15.14c0-.16,0-.33,0-.5v-2.28a7.69,7.69,0,1,1,15.37,0v2.28A7.88,7.88,0,0,1,127.19,124.3Z"/><circle class="cls-3" cx="119.63" cy="127.28" r="1.41"/><path class="cls-1" d="M29.53,118.26c4.54,0,7.15,2.25,7.15,6.17,0,4.08-2.61,6.46-7.15,6.46H25.37v5.44h-3V118.26Zm-4.16,9.89h4c2.79,0,4.36-1.19,4.36-3.64S32.19,121,29.4,121h-4Z"/><path class="cls-1" d="M42.74,121v4.88h8.83v2.73H42.74v5H52.91v2.73H39.7V118.26H52.6V121Z"/><path class="cls-1" d="M59.67,121v4.88H68.5v2.73H59.67v5H69.84v2.73H56.63V118.26h12.9V121Z"/><path class="cls-1" d="M81.71,130.86a7.22,7.22,0,0,1-.82,0H76.6v5.44h-3V118.26h7.33c4.62,0,7.28,2.25,7.28,6.17a5.8,5.8,0,0,1-3.75,5.86l4.06,6H85Zm-.82-2.71c2.79,0,4.39-1.19,4.39-3.64S83.68,121,80.89,121H76.6v7.15Z"/><path class="cls-3" d="M107.24,127.45v6.66a12.19,12.19,0,0,1-7,2.35,9.21,9.21,0,0,1-9.5-9.16c0-5.16,4.21-9.11,9.68-9.11a10.83,10.83,0,0,1,6.94,2.53L105.62,123a7.87,7.87,0,0,0-5.22-2.06,6.42,6.42,0,1,0,0,12.83,8.45,8.45,0,0,0,4.15-1.24v-5Z"/><path class="cls-3" d="M129.21,127.3a9.59,9.59,0,0,1-19.16,0c0-5.19,4.19-9.11,9.58-9.11S129.21,122.14,129.21,127.3Zm-16.06,0a6.48,6.48,0,0,0,6.51,6.43,6.41,6.41,0,1,0-6.51-6.43Z"/><path class="cls-3" d="M144.72,120l-1.27,2.69a10.76,10.76,0,0,0-5.29-1.68c-1.78,0-2.94.67-2.94,1.88,0,4,9.76,1.84,9.73,8.34,0,3.23-2.84,5.22-6.81,5.22a11.16,11.16,0,0,1-7.39-2.87l1.32-2.63a9.54,9.54,0,0,0,6.12,2.63c2.11,0,3.38-.8,3.38-2.19,0-4-9.76-1.78-9.76-8.21,0-3.1,2.66-5,6.58-5A11.79,11.79,0,0,1,144.72,120Z"/><polygon class="cls-3" points="119.23 128.24 118.64 130.35 120.62 130.35 119.95 128.24 119.23 128.24"/></svg>