<svg id="Layer_1" data-name="Layer 1" xmlns="http://www.w3.org/2000/svg" viewBox="0 0 64 64"><defs><style>.cls-1{fill:#26b99a;}.cls-2{fill:#209e84;}</style></defs><title>Artboard 11</title><rect class="cls-1" x="15.76" y="52.13" width="32.48" height="5.2"/><polygon class="cls-1" points="44.64 50.84 19.36 50.84 22.58 16.75 41.42 16.75 44.64 50.84"/><polygon class="cls-1" points="41.45 6.67 41.45 8.38 37.65 8.38 37.65 6.67 33.9 6.67 33.9 8.38 30.1 8.38 30.1 6.67 26.35 6.67 26.35 8.38 22.55 8.38 22.55 6.67 18.8 6.67 18.8 8.38 18.8 10.42 18.8 12.97 45.2 12.97 45.2 10.42 45.2 8.38 45.2 6.67 41.45 6.67"/><polygon class="cls-2" points="18.8 12.97 22.58 16.75 41.42 16.75 45.2 12.97 18.8 12.97"/><polygon class="cls-2" points="15.76 52.13 19.36 49.56 44.64 49.56 48.24 52.13 15.76 52.13"/><path class="cls-2" d="M36.85,32.49l-1.35-.27a4.39,4.39,0,0,0,.07-.72V30a3.55,3.55,0,1,0-7.1,0V31.5a1.69,1.69,0,0,0,0,.23l-1.38.1c0-.11,0-.22,0-.33V30A4.93,4.93,0,0,1,37,30V31.5A5.36,5.36,0,0,1,36.85,32.49Z"/><circle class="cls-2" cx="32" cy="34.41" r="0.9"/><path class="cls-2" d="M38.15,34.42A5.94,5.94,0,0,1,32,40.3a5.87,5.87,0,1,1,0-11.73A5.91,5.91,0,0,1,38.15,34.42Zm-10.31,0A4.16,4.16,0,0,0,32,38.54a4.11,4.11,0,1,0-4.18-4.12Z"/><polygon class="cls-2" points="31.74 35.02 31.37 36.38 32.63 36.38 32.2 35.02 31.74 35.02"/></svg>