<svg id="Layer_1" data-name="Layer 1" xmlns="http://www.w3.org/2000/svg" viewBox="0 0 167.28 168.72"><defs><style>.cls-1{fill:#26b99a;}.cls-2{fill:#2c3e50;}.cls-3{fill:#fff;}</style></defs><title>graph</title><circle class="cls-1" cx="82.22" cy="82.05" r="28.53"/><path class="cls-2" d="M26.24,64.21a3.51,3.51,0,0,0,3.51-3.5,1,1,0,0,0,0-.17l33.82-9.86A5.41,5.41,0,0,0,64.42,52L57.79,63.05a31,31,0,0,1,4.9-5l3-5a5.14,5.14,0,0,0,2.58.71,5,5,0,0,0,1.11-.12l.1.24c.53-.24,1.07-.46,1.62-.67L71,52.91a5.25,5.25,0,1,0-8-4.47,4.9,4.9,0,0,0,.07.67L29.27,59a3.47,3.47,0,0,0-3-1.78,3.51,3.51,0,0,0,0,7Z"/><path class="cls-2" d="M66.66,108.82c-.53-.32-1.06-.64-1.57-1L37.73,129.9a8.57,8.57,0,0,0-3.56-2.19L47.32,85.23a3.48,3.48,0,0,0,2.56-5.81l1.93-3.21a30.42,30.42,0,0,1,2.07-6.63l-5.33,8.9a3.43,3.43,0,0,0-1.28-.25,3.5,3.5,0,0,0-3.45,3L13.76,84.05a3.49,3.49,0,1,0,.17,1.74L44,82.93a3.49,3.49,0,0,0,1.74,1.94L32.58,127.36a9.63,9.63,0,0,0-1.08-.07,8.77,8.77,0,1,0,7.33,4Z"/><path class="cls-2" d="M105.09,122a3.62,3.62,0,0,0-.94.14l-7.4-12.78c-.51.27-1,.53-1.57.78L102.63,123a3.5,3.5,0,1,0,2.46-1Z"/><path class="cls-2" d="M138.38,82a8.66,8.66,0,0,0-5.17,1.7L111.47,59.2a3.52,3.52,0,0,0,.63-2,3.47,3.47,0,0,0-.43-1.63l17.13-15.7a3.53,3.53,0,1,0,.34-2.46l-.11-.12-18.53,17a3.52,3.52,0,0,0-1.43-.52l-2.72-23.07a3.51,3.51,0,1,0-1.74.2L107.33,54a3.5,3.5,0,0,0,1.26,6.76,3.59,3.59,0,0,0,1.66-.43L132,84.81a8.68,8.68,0,0,0-2.37,6,5.63,5.63,0,0,0,0,.58h-17.9c-.18.59-.39,1.18-.62,1.75h18.81A8.76,8.76,0,1,0,138.38,82Z"/><path class="cls-3" d="M99.25,74.63,93.12,68.5a.44.44,0,0,0-.62,0L78.57,82.43l-6.64-6.64a.43.43,0,0,0-.61,0l-6.13,6.13a.43.43,0,0,0,0,.61l6.94,7L77,94.38l1.22,1.23a.44.44,0,0,0,.62,0L99.25,75.24A.45.45,0,0,0,99.25,74.63Z"/></svg>