<?xml version="1.0" encoding="UTF-8"?>
<svg width="166px" height="140px" viewBox="0 0 166 140" version="1.1" xmlns="http://www.w3.org/2000/svg" xmlns:xlink="http://www.w3.org/1999/xlink">
    <!-- Generator: Sketch 41.2 (35397) - http://www.bohemiancoding.com/sketch -->
    <title>white_vertical</title>
    <desc>Created with Sketch.</desc>
    <defs/>
    <g id="Page-1" stroke="none" stroke-width="1" fill="none" fill-rule="evenodd">
        <g id="white_vertical" fill="#FFFFFF">
            <g id="Logo" transform="translate(20.000000, 20.000000)">
                <path d="M10.5402916,90.028396 C10.5402916,87.2627782 8.45157329,85.7735994 5.97605526,85.7735994 L0,85.7735994 L0,99.3115886 L3.05571757,99.3115886 L3.05571757,94.7086723 L5.64727552,94.7086723 C8.819033,94.7086723 10.5402916,92.581274 10.5402916,90.028396 Z M7.34919417,90.2217959 C7.34919417,91.3821949 6.59493477,92.1557943 5.56991558,92.1557943 L3.03637759,92.1557943 L3.03637759,88.3264774 L5.56991558,88.3264774 C6.59493477,88.3264774 7.34919417,88.9840368 7.34919417,90.2217959 Z M18.5083653,91.5949348 L18.5083653,88.6165771 L17.580046,88.6165771 C16.5163469,88.6165771 15.4913277,89.0807368 14.9691481,89.9703761 L14.9691481,88.6165771 L12.0874904,88.6165771 L12.0874904,99.3115886 L15.065848,99.3115886 L15.065848,93.6256332 C15.065848,92.1364543 15.9361474,91.5755948 17.4059862,91.5755948 C17.8121259,91.5755948 18.5083653,91.5949348 18.5083653,91.5949348 Z M24.5617805,99.4469685 C27.6561781,99.4469685 29.8609363,97.59033 29.8609363,93.9737529 C29.8609363,90.3378358 27.6561781,88.4811972 24.5617805,88.4811972 C21.4867229,88.4811972 19.2819647,90.3378358 19.2819647,93.9737529 C19.2819647,97.59033 21.4867229,99.4469685 24.5617805,99.4469685 Z M24.5617805,90.8986953 C25.8575595,90.8986953 26.8245587,91.7689946 26.8245587,93.9737529 C26.8245587,96.1591711 25.8575595,97.0294705 24.5617805,97.0294705 C23.3046815,97.0294705 22.3183423,96.1591711 22.3183423,93.9737529 C22.3183423,91.7689946 23.3046815,90.8986953 24.5617805,90.8986953 Z M37.2101305,99.2729087 L37.2101305,96.7973906 C37.2101305,96.7973906 36.533231,96.8554106 35.9143515,96.8554106 C35.276132,96.8554106 35.0827322,96.6813507 35.0827322,96.0237913 L35.0827322,91.0147352 L37.3455104,91.0147352 L37.3455104,88.6165771 L35.0827322,88.6165771 L35.0827322,85.7735994 L32.0850345,85.7735994 L32.0850345,88.6165771 L30.5378358,88.6165771 L30.5378358,91.0147352 L32.0850345,91.0147352 L32.0850345,96.1785111 C32.0850345,98.1705295 32.3751343,99.3889486 34.8699923,99.3889486 C36.2237913,99.3889486 37.2101305,99.2729087 37.2101305,99.2729087 Z M43.3989256,99.4469685 C46.4933231,99.4469685 48.6980814,97.59033 48.6980814,93.9737529 C48.6980814,90.3378358 46.4933231,88.4811972 43.3989256,88.4811972 C40.323868,88.4811972 38.1191097,90.3378358 38.1191097,93.9737529 C38.1191097,97.59033 40.323868,99.4469685 43.3989256,99.4469685 Z M43.3989256,90.8986953 C44.6947045,90.8986953 45.6617038,91.7689946 45.6617038,93.9737529 C45.6617038,96.1591711 44.6947045,97.0294705 43.3989256,97.0294705 C42.1418266,97.0294705 41.1554873,96.1591711 41.1554873,93.9737529 C41.1554873,91.7689946 42.1418266,90.8986953 43.3989256,90.8986953 Z M56.9369148,95.2695318 C56.743515,96.5459708 55.8732157,97.0294705 54.9255564,97.0294705 C53.7071374,97.0294705 52.7401381,96.1591711 52.7401381,93.9737529 C52.7401381,91.7689946 53.6877974,90.8986953 54.9642364,90.8986953 C55.9699156,90.8986953 56.743515,91.4015349 56.8982348,92.7166539 L59.8959325,92.7166539 C59.6445127,89.8930161 57.6331543,88.4811972 54.9448964,88.4811972 C51.8698388,88.4811972 49.6650806,90.3958557 49.6650806,94.0124328 C49.6650806,97.64835 51.9278588,99.4469685 55.0029163,99.4469685 C57.7491942,99.4469685 59.6058327,98.0351497 59.9152724,95.2695318 L56.9369148,95.2695318 Z M66.0653876,99.4469685 C69.1597851,99.4469685 71.3645434,97.59033 71.3645434,93.9737529 C71.3645434,90.3378358 69.1597851,88.4811972 66.0653876,88.4811972 C62.99033,88.4811972 60.7855718,90.3378358 60.7855718,93.9737529 C60.7855718,97.59033 62.99033,99.4469685 66.0653876,99.4469685 Z M66.0653876,90.8986953 C67.3611665,90.8986953 68.3281658,91.7689946 68.3281658,93.9737529 C68.3281658,96.1591711 67.3611665,97.0294705 66.0653876,97.0294705 C64.8082886,97.0294705 63.8219493,96.1591711 63.8219493,93.9737529 C63.8219493,91.7689946 64.8082886,90.8986953 66.0653876,90.8986953 Z M75.7933998,99.3115886 L75.7933998,85 L72.8150422,85 L72.8150422,99.3115886 L75.7933998,99.3115886 Z M91.7682272,99.3115886 L91.7682272,96.6426708 L85.2313124,96.6426708 L85.2313124,85.7735994 L82.1755948,85.7735994 L82.1755948,99.3115886 L91.7682272,99.3115886 Z M99.8330008,95.2115119 C99.8330008,96.1204912 99.2141213,97.2808903 97.4541827,97.2808903 C96.3131236,97.2808903 96.0036838,96.5653108 96.0036838,96.0818112 C96.0036838,95.4049117 96.5258634,94.9794321 97.2414428,94.8440522 C97.9763622,94.6893323 99.8330008,94.4572525 99.8330008,94.4572525 L99.8330008,95.2115119 Z M93.296086,92.1171144 L96.1777437,92.1171144 C96.1777437,91.6916347 96.2937836,90.8019954 98.0537222,90.8019954 C99.484881,90.8019954 99.8330008,91.304835 99.8330008,92.0397544 L99.8330008,92.4072141 L96.3131236,92.9100537 C95.3267843,93.0454336 92.9479662,93.6449731 92.9479662,96.0818112 C92.9479662,98.2285495 94.5918649,99.4469685 96.7966232,99.4469685 C98.6339217,99.4469685 99.4462011,98.828089 99.9103607,98.3445894 L99.9103607,99.3115886 L103.062778,99.3115886 C103.062778,99.3115886 102.830698,98.4993093 102.830698,97.7257099 L102.830698,91.9623945 C102.830698,90.4151957 101.979739,88.4811972 98.0537222,88.4811972 C93.9923254,88.4811972 93.3347659,90.5505756 93.296086,92.1171144 Z M107.743054,99.3115886 L107.743054,98.2672295 C108.284574,98.9441289 109.232233,99.4469685 110.411972,99.4469685 C113.31297,99.4469685 115.304988,97.59033 115.304988,93.9737529 C115.304988,90.3378358 113.27429,88.4811972 110.586032,88.4811972 C109.406293,88.4811972 108.284574,88.9840368 107.743054,89.6609363 L107.743054,85 L104.764697,85 L104.764697,99.3115886 L107.743054,99.3115886 Z M110.005833,90.8986953 C111.301612,90.8986953 112.268611,91.7689946 112.268611,93.9737529 C112.268611,96.1591711 111.301612,97.0294705 110.005833,97.0294705 C108.555334,97.0294705 107.762394,96.352571 107.762394,93.9737529 C107.762394,91.5755948 108.555334,90.8986953 110.005833,90.8986953 Z M122.750883,91.7883346 L125.67122,91.7883346 C125.67122,90.9567153 125.245741,88.4811972 121.068304,88.4811972 C118.515426,88.4811972 116.484728,89.6222563 116.484728,91.8270146 C116.484728,94.3218726 118.496086,94.8440522 120.797544,95.1534919 L121.377744,95.2308519 C122.209363,95.3468918 122.982962,95.5209517 122.982962,96.1785111 C122.982962,96.9521105 122.151343,97.2615503 121.203684,97.2615503 C120.178665,97.2615503 119.269685,96.9521105 119.269685,95.9270913 L116.271988,95.9270913 C116.271988,96.4879509 116.523408,99.4469685 121.029624,99.4469685 C125.033001,99.4469685 126,97.4936301 126,95.8497314 C126,91.5369148 119.463085,93.2581734 119.463085,91.6142748 C119.463085,90.8793553 120.275365,90.6472755 121.029624,90.6472755 C122.054643,90.6472755 122.750883,91.0534152 122.750883,91.7883346 Z" id="Lettering"/>
                <path d="M60.1843393,53.5274127 C60.9026455,53.9421317 61.4849476,54.9459136 61.4849476,55.781617 L61.4849476,71.5324382 C61.4849476,72.3626819 60.9073691,72.7022957 60.1843393,72.2848961 L46.5571214,64.4180075 C45.8388153,64.0033348 45.2565131,62.9995532 45.2565131,62.1638033 L45.2565131,46.4121039 C45.2565131,45.5818139 45.8340917,45.2421999 46.5571214,45.659646 L60.1843393,53.5274127 Z M80.749641,39.923179 C80.7495947,40.7532453 80.1717626,41.7597234 79.4484624,42.1773041 L65.8161472,50.0476062 C65.0975724,50.4624588 64.5150524,50.1313573 64.5150524,49.295879 L64.5150524,33.5492999 C64.5150524,32.7192798 65.0928842,31.712802 65.816231,31.2951748 L79.4494243,23.4239945 C80.1680454,23.0090957 80.7505657,23.3401969 80.7505191,24.1757218 L80.749641,39.923179 Z M77.933764,19.3043166 C78.6546455,19.7205967 78.6609532,20.391815 77.9372931,20.8096212 L64.2981946,28.6841744 C63.5792622,29.0992511 62.4100006,29.0971384 61.6911059,28.6820712 L28.8077597,9.6962615 C28.0868368,9.28002328 28.0805681,8.60876554 28.8043192,8.19086742 L42.4451327,0.314581796 C43.1641554,-0.100586171 44.3334566,-0.0985134318 45.0523099,0.316595549 L77.933764,19.3043166 Z M42.2264084,60.4199927 C42.2264084,61.2446765 41.6489019,61.5797817 40.9259624,61.1623805 L27.3004459,53.2954602 C26.5822295,52.8807859 26,51.867378 26,51.0371819 L26,13.0627397 C26,12.2302013 26.5863015,11.8937941 27.3050121,12.3087382 L60.1799355,31.2889196 C60.9006738,31.7050345 61.4849476,32.7099117 61.4849476,33.5455698 L61.4849476,49.295536 C61.4849476,50.1257347 60.9085778,50.4660196 60.1914363,50.0520317 L43.5199197,40.42798 C42.8055331,40.0155824 42.2264084,40.3466261 42.2264084,41.1744901 L42.2264084,60.4199927 Z M83.7663773,22.4242477 C83.7664525,21.5995276 84.3442718,20.5973829 85.0675266,20.1798015 L98.6989868,12.309486 C99.4175165,11.8946328 100,12.2355925 100,13.0658094 L100,51.0411993 C100,51.8737584 99.4136985,52.8871793 98.6949879,53.3021235 L65.8200645,72.2823049 C65.0993262,72.6984197 64.5150524,72.3681611 64.5150524,71.532457 L64.5150524,55.7816225 C64.5150524,54.9513781 65.0911497,53.9456988 65.8079522,53.5318238 L82.4715875,43.9103963 C83.1856363,43.4981112 83.7645479,42.4985007 83.7646234,41.6706001 L83.7663773,22.4242477 Z M67.3191202,9.68812933 C66.6002318,9.27300507 66.5954685,8.60279638 67.3190395,8.18508102 L80.9564579,0.312240014 C81.6753017,-0.102746382 82.8360493,-0.105438921 83.5596186,0.312322034 L97.1970046,8.18602241 C97.9158467,8.60105411 97.9206097,9.27126219 97.1970853,9.68907072 L83.560545,17.5636679 C82.8417474,17.9787469 81.6810001,17.98144 80.9573843,17.5635859 L67.3191202,9.68812933 Z" id="Shape"/>
            </g>
        </g>
    </g>
</svg>
